<svg width="58" height="59" viewBox="0 0 58 59" fill="none" xmlns="http://www.w3.org/2000/svg">
<path d="M29.0567 0C13.1928 0 0.33252 12.8603 0.33252 28.7242C0.33252 44.5882 13.1928 57.4485 29.0567 57.4485C44.9207 57.4485 57.781 44.5882 57.781 28.7242C57.7593 12.8693 44.9117 0.0216845 29.0567 0Z" fill="#D38D00"/>
<path d="M29.0567 1.522C13.1928 1.522 0.33252 14.3823 0.33252 30.2462C0.33252 46.1102 13.1928 58.9705 29.0567 58.9705C44.9207 58.9705 57.781 46.1102 57.781 30.2462C57.7593 14.3913 44.9117 1.54369 29.0567 1.522Z" fill="#FFD03C"/>
<path d="M46.8106 7.70274L6.5127 48.0138C8.16658 50.1142 10.1055 51.9736 12.2733 53.5382L52.3481 13.4765C50.7792 11.3042 48.9154 9.36099 46.8106 7.70274Z" fill="#FFF17E"/>
<path d="M1.39547 37.9621L36.8251 2.53251C35.1405 2.08477 33.4189 1.7905 31.6812 1.65334L0.450684 32.8183C0.609333 34.5579 0.92556 36.2796 1.39547 37.9621Z" fill="#F7F5C5"/>
<path d="M25.6319 1.73213C12.4969 3.36617 2.15592 13.7234 0.54248 26.8609L25.6319 1.73213Z" fill="#F7F5C5"/>
<path d="M52.217 30.207C52.2243 42.973 41.8838 53.3291 29.1178 53.3411C16.3518 53.3532 5.99177 43.0167 5.97487 30.2507C5.95797 17.4847 16.2906 7.12072 29.0566 7.09899C35.1932 7.08854 41.0823 9.51809 45.4265 13.8524C49.7707 18.1868 52.2136 24.0703 52.217 30.207Z" fill="#E89C23"/>
<path d="M52.2171 30.2069C52.2134 38.6948 47.5619 46.4991 40.0979 50.5405C32.6339 54.582 23.5561 54.2114 16.4463 49.5751L48.1361 17.0979C50.8017 20.9539 52.2256 25.5323 52.2171 30.22" fill="#D38D00"/>
<path fill-rule="evenodd" clip-rule="evenodd" d="M44.3443 39.9829C40.7489 42.1087 38.5968 36.9255 29.6082 36.9255C20.6196 36.9255 18.4807 42.1743 14.8853 39.9829C13.4025 39.1037 12.6545 36.9911 12.5758 34.3667C12.497 37.3979 13.2319 39.9042 14.8853 40.9277C18.4807 43.0535 20.6327 37.8703 29.6082 37.8703C38.5837 37.8703 40.7489 43.1191 44.3443 40.9277C45.9977 39.9436 46.7325 37.4372 46.6538 34.3667C46.5751 36.9517 45.8271 39.0644 44.3443 39.9829Z" fill="#8E620B"/>
<path fill-rule="evenodd" clip-rule="evenodd" d="M43.0845 22.2288C38.951 16.022 32.9017 20.3654 29.6081 20.2736C26.3145 20.1817 20.2783 16.022 16.1449 22.2288C12.0114 28.4355 11.2897 37.8178 14.8326 39.9436C18.3756 42.0694 20.5801 36.8861 29.5556 36.8861C38.5311 36.8861 40.6962 42.135 44.2917 39.9436C47.8871 37.7522 47.1654 28.4224 42.9795 22.2288" fill="#FFD03C"/>
<path fill-rule="evenodd" clip-rule="evenodd" d="M43.0845 22.2288C38.951 16.022 32.9017 20.3654 29.6081 20.2736C26.3145 20.1817 20.2783 16.022 16.1449 22.2288C12.0114 28.4355 11.2897 37.8178 14.8326 39.9436C18.3756 42.0694 20.5801 36.8861 29.5556 36.8861L43.0845 22.2288Z" fill="#F7F5C5"/>
<path d="M29.0568 8.96209C41.4609 8.96609 51.6518 18.7575 52.1516 31.1515C52.1516 30.8366 52.1516 30.5217 52.1516 30.2067C52.1516 17.4373 41.7999 7.08563 29.0305 7.08563C16.2611 7.08563 5.90942 17.4373 5.90942 30.2067C5.90942 30.5217 5.90942 30.8366 5.90942 31.1515C6.41004 18.7372 16.6323 8.9379 29.0568 8.96209Z" fill="#8E620B"/>
<path fill-rule="evenodd" clip-rule="evenodd" d="M24.2934 30.2201H22.8762V31.6373C22.8142 32.2101 22.3305 32.6443 21.7543 32.6443C21.1781 32.6443 20.6944 32.2101 20.6323 31.6373V30.2201H19.2283C18.7985 30.2666 18.3799 30.0636 18.1504 29.6972C17.9209 29.3308 17.9209 28.8655 18.1504 28.4991C18.3799 28.1327 18.7985 27.9297 19.2283 27.9762H20.6323V26.5722C20.5858 26.1424 20.7889 25.7237 21.1553 25.4943C21.5216 25.2648 21.9869 25.2648 22.3533 25.4943C22.7197 25.7237 22.9228 26.1424 22.8762 26.5722V27.9762H24.2934C24.8663 28.0383 25.3004 28.5219 25.3004 29.0982C25.3004 29.6744 24.8663 30.158 24.2934 30.2201Z" fill="#E89C23"/>
<path fill-rule="evenodd" clip-rule="evenodd" d="M37.7828 32.7395C35.8623 32.7395 34.3054 31.1826 34.3054 29.2621C34.3054 27.3416 35.8623 25.7848 37.7828 25.7848C39.7033 25.7848 41.2601 27.3416 41.2601 29.2621C41.2601 31.1826 39.7033 32.7395 37.7828 32.7395Z" fill="#E89C23"/>
<path fill-rule="evenodd" clip-rule="evenodd" d="M22.8765 28.8815H24.2936C24.7376 28.881 25.1396 29.1439 25.3172 29.5508C25.3801 29.4106 25.4114 29.2583 25.409 29.1046C25.4125 28.8065 25.2966 28.5194 25.087 28.3074C24.8775 28.0954 24.5918 27.9761 24.2936 27.9761H22.8765V28.8815Z" fill="#8E620B"/>
<path fill-rule="evenodd" clip-rule="evenodd" d="M19.2284 28.8815H20.6325V27.9761H19.2284C18.9281 27.9725 18.6389 28.0903 18.4265 28.3027C18.2141 28.5151 18.0964 28.8042 18.0999 29.1046C18.1043 29.2575 18.1354 29.4085 18.1918 29.5507C18.3766 29.1441 18.7817 28.8826 19.2284 28.8815Z" fill="#8E620B"/>
<path fill-rule="evenodd" clip-rule="evenodd" d="M21.7606 26.3491C22.3766 26.3491 22.8759 26.8484 22.8759 27.4645V26.5722C22.9225 26.1424 22.7194 25.7237 22.353 25.4943C21.9866 25.2648 21.5214 25.2648 21.155 25.4943C20.7886 25.7237 20.5855 26.1424 20.6321 26.5722V27.4645C20.632 27.1664 20.7514 26.8806 20.9634 26.6711C21.1754 26.4615 21.4625 26.3456 21.7606 26.3491Z" fill="#8E620B"/>
<path fill-rule="evenodd" clip-rule="evenodd" d="M37.7831 26.7035C39.5249 26.7022 40.9968 27.9943 41.2211 29.7216C41.234 29.5687 41.234 29.4151 41.2211 29.2623C41.1082 27.4282 39.5879 25.9984 37.7503 25.9984C35.9127 25.9984 34.3923 27.4282 34.2795 29.2623C34.2665 29.4151 34.2665 29.5687 34.2795 29.7216C34.501 27.9662 36.0142 26.6626 37.7831 26.7035Z" fill="#8E620B"/>
</svg>
