<svg width="87" height="76" viewBox="0 0 87 76" fill="none" xmlns="http://www.w3.org/2000/svg">
<rect x="80.6348" y="35.5496" width="38.7101" height="6.84972" transform="rotate(180 80.6348 35.5496)" fill="#D38D00"/>
<rect x="58.8259" y="35.5496" width="16.9012" height="6.84972" transform="rotate(180 58.8259 35.5496)" fill="#FFD03C"/>
<rect x="80.6348" y="29.6968" width="38.7101" height="1.33845" transform="rotate(180 80.6348 29.6968)" fill="#FFF17E"/>
<rect x="80.6348" y="29.6968" width="38.7101" height="1.33845" transform="rotate(180 80.6348 29.6968)" fill="#E99C01"/>
<rect x="80.6348" y="35.5496" width="9.4479" height="6.84972" transform="rotate(180 80.6348 35.5496)" fill="#E99C01"/>
<rect x="80.6216" y="29.6968" width="21.5989" height="1.33845" transform="rotate(180 80.6216 29.6968)" fill="#FFD03C"/>
<rect x="80.4644" y="28.4764" width="38.7101" height="6.84972" transform="rotate(180 80.4644 28.4764)" fill="#D38D00"/>
<rect x="58.6416" y="28.4764" width="16.9012" height="6.84972" transform="rotate(180 58.6416 28.4764)" fill="#FFD03C"/>
<rect x="80.4644" y="22.6241" width="38.7101" height="1.33845" transform="rotate(180 80.4644 22.6241)" fill="#FFF17E"/>
<rect x="80.4644" y="22.6241" width="38.7101" height="1.33845" transform="rotate(180 80.4644 22.6241)" fill="#E99C01"/>
<rect x="80.4644" y="28.4764" width="9.4479" height="6.84972" transform="rotate(180 80.4644 28.4764)" fill="#E99C01"/>
<rect x="80.4644" y="22.6241" width="21.5989" height="1.33845" transform="rotate(180 80.4644 22.6241)" fill="#FFD03C"/>
<rect x="82.5637" y="49.8128" width="38.7101" height="6.84972" transform="rotate(180 82.5637 49.8128)" fill="#D38D00"/>
<rect x="60.7417" y="49.8128" width="16.9012" height="6.84972" transform="rotate(180 60.7417 49.8128)" fill="#FFD03C"/>
<rect x="82.5637" y="43.9604" width="38.7101" height="1.33845" transform="rotate(180 82.5637 43.9604)" fill="#FFF17E"/>
<rect x="82.5637" y="43.9604" width="38.7101" height="1.33845" transform="rotate(180 82.5637 43.9604)" fill="#E99C01"/>
<rect x="82.5637" y="49.8128" width="9.4479" height="6.84972" transform="rotate(180 82.5637 49.8128)" fill="#E99C01"/>
<rect x="82.5637" y="43.9604" width="21.5989" height="1.33845" transform="rotate(180 82.5637 43.9604)" fill="#FFD03C"/>
<rect x="82.3933" y="42.727" width="38.7101" height="6.84972" transform="rotate(180 82.3933 42.727)" fill="#D38D00"/>
<rect x="60.5842" y="42.727" width="16.9012" height="6.84972" transform="rotate(180 60.5842 42.727)" fill="#FFD03C"/>
<rect x="82.3933" y="36.8747" width="38.7101" height="1.33845" transform="rotate(180 82.3933 36.8747)" fill="#FFF17E"/>
<rect x="82.3933" y="36.8747" width="38.7101" height="1.33845" transform="rotate(180 82.3933 36.8747)" fill="#E99C01"/>
<rect x="82.3933" y="42.727" width="9.4479" height="6.84972" transform="rotate(180 82.3933 42.727)" fill="#E99C01"/>
<rect x="82.3799" y="36.8747" width="21.5989" height="1.33845" transform="rotate(180 82.3799 36.8747)" fill="#FFD03C"/>
<rect x="82.7207" y="64.0506" width="38.7101" height="6.84972" transform="rotate(180 82.7207 64.0506)" fill="#D38D00"/>
<rect x="60.9121" y="64.0506" width="16.9012" height="6.84972" transform="rotate(180 60.9121 64.0506)" fill="#FFD03C"/>
<rect x="82.7207" y="58.2111" width="38.7101" height="1.33845" transform="rotate(180 82.7207 58.2111)" fill="#FFF17E"/>
<rect x="82.7207" y="58.2111" width="38.7101" height="1.33845" transform="rotate(180 82.7207 58.2111)" fill="#E99C01"/>
<rect x="82.7207" y="64.0506" width="9.4479" height="6.84972" transform="rotate(180 82.7207 64.0506)" fill="#E99C01"/>
<rect x="82.7207" y="58.2111" width="21.5989" height="1.33845" transform="rotate(180 82.7207 58.2111)" fill="#FFD03C"/>
<rect x="82.5637" y="56.9776" width="38.7101" height="6.84972" transform="rotate(180 82.5637 56.9776)" fill="#D38D00"/>
<rect x="60.7417" y="56.9776" width="16.9012" height="6.84972" transform="rotate(180 60.7417 56.9776)" fill="#FFD03C"/>
<rect x="82.5637" y="51.1382" width="38.7101" height="1.33845" transform="rotate(180 82.5637 51.1382)" fill="#FFF17E"/>
<rect x="82.5637" y="51.1382" width="38.7101" height="1.33845" transform="rotate(180 82.5637 51.1382)" fill="#E99C01"/>
<rect x="82.5637" y="56.9776" width="9.4479" height="6.84972" transform="rotate(180 82.5637 56.9776)" fill="#E99C01"/>
<rect x="82.5637" y="51.1382" width="21.5989" height="1.33845" transform="rotate(180 82.5637 51.1382)" fill="#FFD03C"/>
<rect x="82.8652" y="71.2414" width="38.7101" height="6.84972" transform="rotate(180 82.8652 71.2414)" fill="#D38D00"/>
<rect x="82.8652" y="65.3888" width="38.7101" height="1.33845" transform="rotate(180 82.8652 65.3888)" fill="#FFF17E"/>
<rect x="82.8652" y="65.3888" width="38.7101" height="1.33845" transform="rotate(180 82.8652 65.3888)" fill="#E99C01"/>
<rect x="82.8652" y="71.2414" width="9.4479" height="6.84972" transform="rotate(180 82.8652 71.2414)" fill="#E99C01"/>
<rect x="82.8523" y="65.3888" width="21.5989" height="1.33845" transform="rotate(180 82.8523 65.3888)" fill="#FFD03C"/>
<rect x="2.17773" y="49.2489" width="38.5395" height="7.97822" fill="#E89C23"/>
<rect x="23.8293" y="49.2489" width="16.9012" height="7.97822" fill="#E99C01"/>
<rect x="2.17773" y="49.2489" width="38.5395" height="1.82397" fill="#FFF17E"/>
<rect x="2.17773" y="49.2489" width="38.5395" height="1.82397" fill="#FFF8CF"/>
<rect x="31.7283" y="49.2489" width="9.00174" height="1.82397" fill="#FFD03C"/>
<rect x="15.5491" y="49.2489" width="16.1533" height="1.82397" fill="#FFF17E"/>
<rect x="2.17773" y="42.8582" width="38.5395" height="7.97822" fill="#E89C23"/>
<rect x="31.7283" y="42.8582" width="9.00174" height="7.97822" fill="#D38D00"/>
<rect x="20.811" y="42.8582" width="10.8782" height="7.97822" fill="#E99C01"/>
<rect x="2.17773" y="42.8582" width="38.5395" height="1.82397" fill="#FFF17E"/>
<rect x="2.17773" y="42.8582" width="38.5395" height="1.82397" fill="#FFD03C"/>
<rect x="31.7283" y="42.8582" width="9.00174" height="1.82397" fill="#FFD03C"/>
<rect x="15.5491" y="42.8582" width="16.1533" height="1.82397" fill="#FFF17E"/>
<rect x="2.17773" y="49.839" width="38.5395" height="1.33845" fill="#FFF17E"/>
<rect x="2.17773" y="49.839" width="38.5395" height="1.33845" fill="#FFD03C"/>
<rect x="14.0408" y="49.839" width="26.6772" height="1.33845" fill="#D38D00"/>
<rect x="39.5232" y="71.7004" width="38.7101" height="6.84972" transform="rotate(180 39.5232 71.7004)" fill="#D38D00"/>
<rect x="17.7012" y="71.7004" width="16.9012" height="6.84972" transform="rotate(180 17.7012 71.7004)" fill="#E89C23"/>
<rect x="39.5232" y="65.8614" width="38.7101" height="1.33845" transform="rotate(180 39.5232 65.8614)" fill="#FFF17E"/>
<rect x="39.5232" y="65.8614" width="38.7101" height="1.33845" transform="rotate(180 39.5232 65.8614)" fill="#FFD03C"/>
<rect x="39.5232" y="65.8614" width="26.8478" height="1.33845" transform="rotate(180 39.5232 65.8614)" fill="#D38D00"/>
<rect x="39.5232" y="71.7004" width="9.4479" height="6.84972" transform="rotate(180 39.5232 71.7004)" fill="#D38D00"/>
<rect x="43.1714" y="64.418" width="38.5395" height="6.84972" transform="rotate(180 43.1714 64.418)" fill="#E99C01"/>
<rect x="21.5198" y="64.418" width="16.9012" height="6.84972" transform="rotate(180 21.5198 64.418)" fill="#E89C23"/>
<rect x="43.1714" y="58.5786" width="38.5395" height="1.33845" transform="rotate(180 43.1714 58.5786)" fill="#FFF17E"/>
<rect x="43.1714" y="58.5786" width="38.5395" height="1.33845" transform="rotate(180 43.1714 58.5786)" fill="#FFD03C"/>
<rect x="43.3416" y="58.5786" width="26.6772" height="1.33845" transform="rotate(180 43.3416 58.5786)" fill="#D38D00"/>
<rect x="49.4304" y="42.8578" width="38.7101" height="6.84972" transform="rotate(180 49.4304 42.8578)" fill="#D3D3D3"/>
<rect x="27.6213" y="42.8578" width="16.9012" height="6.84972" transform="rotate(180 27.6213 42.8578)" fill="#F2F2F2"/>
<rect x="49.4304" y="37.0054" width="38.7101" height="1.33845" transform="rotate(180 49.4304 37.0054)" fill="#F2F2F2"/>
<rect x="49.4304" y="37.0054" width="38.7101" height="1.33845" transform="rotate(180 49.4304 37.0054)" fill="#B3B3B3"/>
<rect x="49.417" y="37.0054" width="26.8478" height="1.33845" transform="rotate(180 49.417 37.0054)" fill="#9C9C9C"/>
<rect x="49.4304" y="42.8578" width="9.4479" height="6.84972" transform="rotate(180 49.4304 42.8578)" fill="#9C9C9C"/>
<rect x="44.7456" y="35.7064" width="38.5395" height="6.84972" transform="rotate(180 44.7456 35.7064)" fill="#D3D3D3"/>
<rect x="23.1072" y="35.7064" width="16.9012" height="6.84972" transform="rotate(180 23.1072 35.7064)" fill="#F2F2F2"/>
<rect x="44.7456" y="29.867" width="38.5395" height="1.33845" transform="rotate(180 44.7456 29.867)" fill="#F2F2F2"/>
<rect x="44.7456" y="29.867" width="38.5395" height="1.33845" transform="rotate(180 44.7456 29.867)" fill="#B3B3B3"/>
<rect x="44.9028" y="29.867" width="26.6772" height="1.33845" transform="rotate(180 44.9028 29.867)" fill="#9C9C9C"/>
<rect x="12.1897" y="21.4298" width="38.5395" height="7.97822" fill="#F2F2F2"/>
<rect x="33.8284" y="21.4298" width="16.9012" height="7.97822" fill="#D3D3D3"/>
<rect x="12.1897" y="21.4298" width="38.5395" height="1.82397" fill="#F2F2F2"/>
<rect x="12.1897" y="21.4298" width="38.5395" height="1.82397" fill="white"/>
<rect x="41.7278" y="21.4298" width="9.00174" height="1.82397" fill="#D3D3D3"/>
<rect x="25.5481" y="21.4298" width="16.1533" height="1.82397" fill="#F2F2F2"/>
<rect x="12.1897" y="28.4109" width="38.5395" height="1.33845" fill="#F2F2F2"/>
<rect x="12.1897" y="28.4109" width="38.5395" height="1.33845" fill="#B3B3B3"/>
<rect x="24.052" y="28.4109" width="26.6772" height="1.33845" fill="#9C9C9C"/>
<rect x="12.1897" y="15.0391" width="38.5395" height="7.97822" fill="#F2F2F2"/>
<rect x="41.7278" y="15.0391" width="9.00174" height="7.97822" fill="#B3B3B3"/>
<rect x="30.8232" y="15.0391" width="10.8782" height="7.97822" fill="#D3D3D3"/>
<rect x="12.1897" y="15.0391" width="38.5395" height="1.82397" fill="#F2F2F2"/>
<rect x="12.1897" y="15.0391" width="38.5395" height="1.82397" fill="white"/>
<rect x="41.7278" y="15.0391" width="9.00174" height="1.82397" fill="#D3D3D3"/>
<rect x="25.5481" y="15.0391" width="16.1533" height="1.82397" fill="#F2F2F2"/>
<rect x="12.1897" y="22.02" width="38.5395" height="1.33845" fill="#F2F2F2"/>
<rect x="12.1897" y="22.02" width="38.5395" height="1.33845" fill="#B3B3B3"/>
<rect x="24.052" y="22.02" width="26.6772" height="1.33845" fill="#9C9C9C"/>
<rect x="43.2236" y="7.04813" width="38.5395" height="7.97822" fill="#FFD03C"/>
<rect x="64.8616" y="7.04816" width="16.9012" height="7.97822" fill="#E99C01"/>
<rect x="43.2236" y="7.04813" width="38.5395" height="1.82397" fill="#FFF17E"/>
<rect x="43.2236" y="7.04813" width="38.5395" height="1.82397" fill="#FFF8CF"/>
<rect x="72.7615" y="7.04816" width="9.00174" height="1.82397" fill="#FFD03C"/>
<rect x="56.5945" y="7.04816" width="16.1533" height="1.82397" fill="#FFF17E"/>
<rect x="43.2236" y="14.0161" width="38.5395" height="1.33845" fill="#FFF17E"/>
<rect x="43.2236" y="14.0161" width="38.5395" height="1.33845" fill="#E99C01"/>
<rect x="55.0862" y="14.0161" width="26.6772" height="1.33845" fill="#D38D00"/>
<rect x="86.2773" y="21.3246" width="38.5395" height="6.84972" transform="rotate(180 86.2773 21.3246)" fill="#E99C01"/>
<rect x="64.6257" y="21.3246" width="16.9012" height="6.84972" transform="rotate(180 64.6257 21.3246)" fill="#FFD03C"/>
<rect x="86.2773" y="15.4722" width="38.5395" height="1.33845" transform="rotate(180 86.2773 15.4722)" fill="#FFF17E"/>
<rect x="86.2773" y="15.4722" width="38.5395" height="1.33845" transform="rotate(180 86.2773 15.4722)" fill="#E99C01"/>
<rect x="86.4478" y="15.4722" width="26.6772" height="1.33845" transform="rotate(180 86.4478 15.4722)" fill="#D38D00"/>
<rect x="43.2236" y="0.65744" width="38.5395" height="7.97822" fill="#FFD03C"/>
<rect x="72.7615" y="0.65744" width="9.00174" height="7.97822" fill="#D38D00"/>
<rect x="61.8567" y="0.65744" width="10.8782" height="7.97822" fill="#E99C01"/>
<rect x="43.2236" y="0.65744" width="38.5395" height="1.82397" fill="#FFF17E"/>
<rect x="43.2236" y="0.65744" width="38.5395" height="1.82397" fill="#FFF8CF"/>
<rect x="72.7615" y="0.65744" width="9.00174" height="1.82397" fill="#FFD03C"/>
<rect x="56.5945" y="0.65744" width="16.1533" height="1.82397" fill="#FFF17E"/>
<rect x="43.2236" y="7.62531" width="38.5395" height="1.33845" fill="#FFF17E"/>
<rect x="43.2236" y="7.62531" width="38.5395" height="1.33845" fill="#E99C01"/>
<rect x="55.0862" y="7.62531" width="26.6772" height="1.33845" fill="#D38D00"/>
<path d="M44.431 16.4827C28.5671 16.4827 15.7068 29.3429 15.7068 45.2069C15.7068 61.0708 28.5671 73.9311 44.431 73.9311C60.295 73.9311 73.1552 61.0708 73.1552 45.2069C73.1336 29.3519 60.286 16.5044 44.431 16.4827Z" fill="#D38D00"/>
<path d="M44.431 18.0046C28.5671 18.0046 15.7068 30.8649 15.7068 46.7289C15.7068 62.5928 28.5671 75.4531 44.431 75.4531C60.295 75.4531 73.1552 62.5928 73.1552 46.7289C73.1336 30.8739 60.286 18.0263 44.431 18.0046Z" fill="#FFD03C"/>
<path d="M62.1846 24.1854L21.8867 64.4964C23.5406 66.5969 25.4795 68.4563 27.6473 70.0208L67.7221 29.9591C66.1532 27.7869 64.2895 25.8436 62.1846 24.1854Z" fill="#FFF17E"/>
<path d="M16.7695 54.4448L52.1991 19.0152C50.5145 18.5674 48.7929 18.2732 47.0552 18.136L15.8247 49.3009C15.9834 51.0406 16.2996 52.7623 16.7695 54.4448Z" fill="#F7F5C5"/>
<path d="M41.0059 18.2148C27.871 19.8488 17.5299 30.206 15.9165 43.3435L41.0059 18.2148Z" fill="#F7F5C5"/>
<path d="M67.5913 46.6896C67.5985 59.4556 57.2581 69.8117 44.4921 69.8238C31.7261 69.8359 21.366 59.4993 21.3491 46.7333C21.3322 33.9673 31.6649 23.6034 44.4309 23.5816C50.5675 23.5712 56.4566 26.0007 60.8008 30.3351C65.1449 34.6694 67.5878 40.553 67.5913 46.6896Z" fill="#E89C23"/>
<path d="M67.5911 46.6895C67.5875 55.1774 62.936 62.9818 55.4719 67.0232C48.0079 71.0646 38.9301 70.694 31.8203 66.0577L63.5101 33.5806C66.1757 37.4366 67.5996 42.015 67.5911 46.7026" fill="#D38D00"/>
<path fill-rule="evenodd" clip-rule="evenodd" d="M59.7183 56.4656C56.1229 58.5914 53.9709 53.4081 44.9822 53.4081C35.9936 53.4081 33.8547 58.657 30.2593 56.4656C28.7765 55.5864 28.0285 53.4738 27.9498 50.8493C27.8711 53.8805 28.6059 56.3869 30.2593 57.4104C33.8547 59.5361 36.0067 54.3529 44.9822 54.3529C53.9577 54.3529 56.1229 59.6018 59.7183 57.4104C61.3717 56.4262 62.1066 53.9199 62.0278 50.8493C61.9491 53.4344 61.2011 55.547 59.7183 56.4656Z" fill="#8E620B"/>
<path fill-rule="evenodd" clip-rule="evenodd" d="M58.4585 38.7114C54.325 32.5047 48.2758 36.8481 44.9821 36.7562C41.6885 36.6644 35.6523 32.5047 31.5189 38.7114C27.3854 44.9181 26.6637 54.3004 30.2067 56.4262C33.7496 58.552 35.9541 53.3688 44.9296 53.3688C53.9051 53.3688 56.0703 58.6176 59.6657 56.4262C63.2612 54.2348 62.5395 44.905 58.3535 38.7114" fill="#FFD03C"/>
<path fill-rule="evenodd" clip-rule="evenodd" d="M58.4585 38.7114C54.325 32.5047 48.2758 36.8481 44.9821 36.7562C41.6885 36.6644 35.6523 32.5047 31.5189 38.7114C27.3854 44.9181 26.6637 54.3004 30.2067 56.4262C33.7496 58.552 35.9541 53.3688 44.9296 53.3688L58.4585 38.7114Z" fill="#F7F5C5"/>
<path d="M44.431 25.4448C56.8351 25.4488 67.0261 35.2402 67.5259 47.6342C67.5259 47.3193 67.5259 47.0043 67.5259 46.6894C67.5259 33.92 57.1742 23.5683 44.4048 23.5683C31.6354 23.5683 21.2837 33.92 21.2837 46.6894C21.2837 47.0043 21.2837 47.3193 21.2837 47.6342C21.7843 35.2198 32.0066 25.4206 44.431 25.4448Z" fill="#8E620B"/>
<path fill-rule="evenodd" clip-rule="evenodd" d="M39.6677 46.7028H38.2505V48.1199C38.1884 48.6928 37.7048 49.1269 37.1285 49.1269C36.5523 49.1269 36.0687 48.6928 36.0066 48.1199V46.7028H34.6025C34.1727 46.7493 33.7541 46.5462 33.5246 46.1798C33.2952 45.8135 33.2952 45.3482 33.5246 44.9818C33.7541 44.6154 34.1727 44.4123 34.6025 44.4589H36.0066V43.0548C35.9601 42.625 36.1631 42.2064 36.5295 41.9769C36.8959 41.7474 37.3612 41.7474 37.7276 41.9769C38.094 42.2064 38.297 42.625 38.2505 43.0548V44.4589H39.6677C40.2405 44.5209 40.6747 45.0046 40.6747 45.5808C40.6747 46.157 40.2405 46.6407 39.6677 46.7028Z" fill="#E89C23"/>
<path fill-rule="evenodd" clip-rule="evenodd" d="M53.1568 49.2221C51.2363 49.2221 49.6794 47.6653 49.6794 45.7448C49.6794 43.8243 51.2363 42.2674 53.1568 42.2674C55.0773 42.2674 56.6341 43.8243 56.6341 45.7448C56.6341 47.6653 55.0773 49.2221 53.1568 49.2221Z" fill="#E89C23"/>
<path fill-rule="evenodd" clip-rule="evenodd" d="M38.2507 45.3642H39.6679C40.1119 45.3637 40.5139 45.6265 40.6914 46.0334C40.7543 45.8932 40.7857 45.7409 40.7833 45.5872C40.7868 45.2892 40.6708 45.0021 40.4613 44.7901C40.2517 44.578 39.966 44.4587 39.6679 44.4587H38.2507V45.3642Z" fill="#8E620B"/>
<path fill-rule="evenodd" clip-rule="evenodd" d="M34.6027 45.3642H36.0068V44.4588H34.6027C34.3023 44.4552 34.0132 44.573 33.8008 44.7854C33.5884 44.9978 33.4706 45.2869 33.4742 45.5873C33.4786 45.7402 33.5097 45.8912 33.5661 46.0334C33.7509 45.6267 34.156 45.3652 34.6027 45.3642Z" fill="#8E620B"/>
<path fill-rule="evenodd" clip-rule="evenodd" d="M37.1348 42.8317C37.7508 42.8317 38.2502 43.3311 38.2502 43.9471V43.0548C38.2968 42.625 38.0937 42.2064 37.7273 41.9769C37.3609 41.7474 36.8956 41.7474 36.5293 41.9769C36.1629 42.2064 35.9598 42.625 36.0063 43.0548V43.9471C36.0063 43.649 36.1256 43.3633 36.3376 43.1538C36.5497 42.9442 36.8368 42.8282 37.1348 42.8317Z" fill="#8E620B"/>
<path fill-rule="evenodd" clip-rule="evenodd" d="M53.1571 43.1861C54.8989 43.1848 56.3708 44.4769 56.5951 46.2042C56.6081 46.0514 56.6081 45.8977 56.5951 45.7449C56.4823 43.9108 54.9619 42.4811 53.1243 42.4811C51.2867 42.4811 49.7664 43.9108 49.6535 45.7449C49.6406 45.8977 49.6406 46.0514 49.6535 46.2042C49.8751 44.4488 51.3883 43.1453 53.1571 43.1861Z" fill="#8E620B"/>
</svg>
