<svg xmlns="http://www.w3.org/2000/svg" width="32" height="32" viewBox="0 0 32 32">
    <path fill="#737485" fill-rule="evenodd" d="M16 4C9.373 4 4 9.373 4 16s5.373 12 12 12 12-5.373 12-12S22.627 4 16 4zm4 7a2 2 0 1 1 0 4 2 2 0 0 1 0-4zm-8 0a2 2 0 1 1 0 4 2 2 0 0 1 0-4zm10.903 9.343C21.528 23.215 18.883 25 16 25s-5.527-1.784-6.903-4.656c-.211-.442-.066-.994.324-1.233.39-.24.878-.076 1.089.365 1.094 2.285 3.197 3.705 5.49 3.705 2.292 0 4.396-1.42 5.49-3.705.211-.441.699-.605 1.09-.366.39.24.534.792.323 1.233z"/>
</svg>
