<svg width="24" height="24" viewBox="0 0 24 24" fill="none" xmlns="http://www.w3.org/2000/svg">
<path d="M15.1847 16.0645C19.0902 16.0645 22.2561 12.8985 22.2561 8.99306C22.2561 5.08762 19.0902 1.92163 15.1847 1.92163C11.2793 1.92163 8.11328 5.08762 8.11328 8.99306C8.11328 12.8985 11.2793 16.0645 15.1847 16.0645Z" fill="#F8A932" fill-opacity="0.1"/>
<path fill-rule="evenodd" clip-rule="evenodd" d="M10.7691 14.252C12.8731 15.8374 15.864 15.4171 17.4495 13.3131C19.194 11.0555 19.6111 9.23204 19.7267 8.30954C19.1481 8.83749 18.6706 9.13681 17.6977 9.02047C19.6093 7.47449 19.6587 4.87083 19.0225 3.29924C17.2283 5.68026 12.701 3.7619 9.8302 7.57154C8.24471 9.67555 8.66506 12.6665 10.7691 14.252Z" fill="#F13E10"/>
<path fill-rule="evenodd" clip-rule="evenodd" d="M11.2205 13.6531C9.89739 12.6561 9.59802 10.8219 10.5518 9.55617C11.5672 8.17251 12.5691 7.64148 13.0935 7.42928C12.8873 7.85377 12.7978 8.18284 13.0448 8.73999C13.6088 7.36846 15.1395 6.93329 16.1854 7.0644C15.1061 8.49673 17.07 10.8749 15.343 13.1666C14.3893 14.4323 12.5435 14.6501 11.2205 13.6531Z" fill="#F8A932"/>
<path fill-rule="evenodd" clip-rule="evenodd" d="M11.6715 13.0537C12.333 13.5522 13.2207 13.49 13.6543 12.9147C14.1324 12.2982 14.2214 11.7808 14.2379 11.5171C14.075 11.6579 13.9378 11.7348 13.6441 11.6821C14.1863 11.2741 14.1498 10.5245 13.9283 10.0589C13.4377 10.7099 12.0436 10.0677 11.2586 11.1094C10.8251 11.6847 11.0099 12.5552 11.6715 13.0537Z" fill="#F13E10"/>
<path opacity="0.2" fill-rule="evenodd" clip-rule="evenodd" d="M14.248 10.5395C15.0041 11.1093 15.0397 12.3374 14.3275 13.2825C13.8503 13.9158 13.1584 14.2614 12.5263 14.2491L6.42116 22.3503C6.27871 22.5394 6.00999 22.5771 5.82096 22.4347L5.13642 21.9188C4.94739 21.7764 4.90962 21.5077 5.05207 21.3186L11.1568 13.2175C10.9705 12.6132 11.112 11.8526 11.5893 11.2192C12.3015 10.274 13.4919 9.96971 14.248 10.5395Z" fill="black"/>
<mask id="mask0_9776_13732" style="mask-type:alpha" maskUnits="userSpaceOnUse" x="4" y="11" width="9" height="12">
<path d="M12.6137 12.4227L11.9292 11.9068C11.7402 11.7644 11.4714 11.8022 11.329 11.9912L4.62305 20.8903C4.48061 21.0793 4.51837 21.348 4.70741 21.4905L5.39195 22.0063C5.58098 22.1488 5.8497 22.111 5.99214 21.922L12.6981 13.0229C12.8405 12.8338 12.8028 12.5651 12.6137 12.4227Z" fill="white"/>
</mask>
<g mask="url(#mask0_9776_13732)">
<path d="M12.6137 12.4227L11.9292 11.9068C11.7402 11.7644 11.4714 11.8022 11.329 11.9912L4.62305 20.8903C4.48061 21.0793 4.51837 21.348 4.70741 21.4905L5.39195 22.0063C5.58098 22.1488 5.8497 22.111 5.99214 21.922L12.6981 13.0229C12.8405 12.8338 12.8028 12.5651 12.6137 12.4227Z" fill="#FF9300"/>
<path d="M14.0717 11.9117L13.0449 11.1379L4.79146 22.0907L5.81828 22.8644L14.0717 11.9117Z" fill="#BE7005"/>
</g>
<path d="M11.2401 13.5338C11.9962 14.1035 13.1865 13.7992 13.8988 12.8541C14.611 11.9089 14.5754 10.6808 13.8193 10.111C13.0632 9.54125 11.8728 9.84555 11.1606 10.7907C10.4484 11.7359 10.484 12.964 11.2401 13.5338Z" fill="url(#paint0_linear_9776_13732)"/>
<path fill-rule="evenodd" clip-rule="evenodd" d="M19.8994 15.8501V16.6001H19.1494V15.8501H19.8994ZM19.1494 15.1001V15.8501H18.3994V15.1001H19.1494ZM20.6494 15.1001V15.8501H19.8994V15.1001H20.6494ZM19.8994 14.3501V15.1001H19.1494V14.3501H19.8994Z" fill="#F8A932"/>
<path fill-rule="evenodd" clip-rule="evenodd" d="M8.75684 4.70728V5.45728H8.00684V4.70728H8.75684ZM8.00684 3.95728V4.70728H7.25684V3.95728H8.00684ZM9.50684 3.95728V4.70728H8.75684V3.95728H9.50684ZM8.75684 3.20728V3.95728H8.00684V3.20728H8.75684Z" fill="#F8A932"/>
<path fill-rule="evenodd" clip-rule="evenodd" d="M4.4707 17.5645V18.3145H3.7207V17.5645H4.4707ZM3.7207 16.8145V17.5645H2.9707V16.8145H3.7207ZM5.2207 16.8145V17.5645H4.4707V16.8145H5.2207ZM4.4707 16.0645V16.8145H3.7207V16.0645H4.4707Z" fill="#F8A932"/>
<path fill-rule="evenodd" clip-rule="evenodd" d="M17.8878 16.4639C18.0183 16.366 18.1993 16.3829 18.3097 16.4973L18.3358 16.5279L19.1998 17.6799H20.7998L21.6638 16.5279L21.6899 16.4973C21.8004 16.3829 21.9813 16.366 22.1118 16.4639C22.2532 16.57 22.2818 16.7705 22.1758 16.9119L21.5998 17.6799H22.1998C22.7521 17.6799 23.1998 18.1276 23.1998 18.6799V21.7999C23.1998 22.3522 22.7521 22.7999 22.1998 22.7999H17.7998C17.2475 22.7999 16.7998 22.3522 16.7998 21.7999V18.6799C16.7998 18.1276 17.2475 17.6799 17.7998 17.6799H18.3998L17.8238 16.9119C17.7178 16.7705 17.7464 16.57 17.8878 16.4639ZM21.1539 20.3957C21.3224 20.3091 21.3211 20.1703 21.1539 20.0843L19.3882 19.1762C19.2198 19.0896 19.0855 19.177 19.0855 19.37V21.1101C19.0855 21.3032 19.2211 21.3898 19.3882 21.3038L21.1539 20.3957Z" fill="white"/>
<defs>
<linearGradient id="paint0_linear_9776_13732" x1="11.7991" y1="13.955" x2="12.7127" y2="9.62447" gradientUnits="userSpaceOnUse">
<stop stop-color="#9D0202"/>
<stop offset="0.388995" stop-color="#FF160F"/>
<stop offset="0.617653" stop-color="#FF412C"/>
<stop offset="1" stop-color="#FFCBBF"/>
</linearGradient>
</defs>
</svg>
