<svg xmlns="http://www.w3.org/2000/svg" width="30" height="30" viewBox="0 0 24 24">
    <path fill="#f0f0f0" fill-rule="evenodd" d="M11.917 18.876c-.09.022-.182.033-.279.033H4.18A1.18 1.18 0 0 1 3 17.73c0-2.958 2.2-5.365 4.91-5.365 1.704 0 3.209.955 4.09 2.402.88-1.447 2.384-2.402 4.091-2.402 2.705 0 4.909 2.407 4.909 5.365v.19a.99.99 0 0 1-.99.99h-7.838a.992.992 0 0 1-.255-.033zm-4.008-7.33a3.273 3.273 0 1 1 0-6.546 3.273 3.273 0 0 1 0 6.545zm8.182-1.637a1.636 1.636 0 1 0 0-3.273 1.636 1.636 0 0 0 0 3.273zm0 1.636a3.273 3.273 0 1 1 0-6.545 3.273 3.273 0 0 1 0 6.545zm0 2.455c-1.639 0-3.048 1.408-3.248 3.273h6.496C19.14 15.409 17.728 14 16.091 14z"/>
</svg>
