<svg xmlns="http://www.w3.org/2000/svg" width="35" height="35" viewBox="0 0 40 40">
    <path fill="orangered" fill-rule="evenodd" d="M5 11.287A3.283 3.283 0 0 1 8.282 8h23.436A3.28 3.28 0 0 1 35 11.287v17.426A3.283 3.283 0 0 1 31.718 32H8.282A3.28 3.28 0 0 1 5 28.713V11.287zm8 6.881l-4.667 4.675v2.446a3.292 3.292 0 0 0 3.294 3.282h16.746a3.292 3.292 0 0 0 3.294-3.287v-7.427l-3.028-3.114a1.607 1.607 0 0 0-2.294-.016l-5.19 5.189c-.64.64-1.76.733-2.508.211l-3.127-2.183c-.751-.524-1.876-.42-2.52.224zm-.917-2.454c1.15 0 2.084-.96 2.084-2.143 0-1.183-.933-2.142-2.084-2.142-1.15 0-2.083.959-2.083 2.142 0 1.184.933 2.143 2.083 2.143z"/>
</svg>
