<svg xmlns="http://www.w3.org/2000/svg" width="24" height="24" viewBox="0 0 24 24">
    <g fill="#FF5151" fill-rule="evenodd" transform="translate(1 1)">
        <circle cx="11" cy="11" r="3.667"/>
        <circle cx="6.435" cy="6.492" r="1"/>
        <circle cx="6.444" cy="15.513" r="1"/>
        <circle cx="3.853" cy="18.112" r="1"/>
        <circle cx="3.864" cy="3.878" r="1"/>
        <path d="M11 12.833l2.202 5.14a.917.917 0 0 1-.842 1.277H9.64a.917.917 0 0 1-.842-1.278L11 12.833zM5.815 16.185A7.31 7.31 0 0 1 3.667 11a7.31 7.31 0 0 1 2.148-5.185L7.11 7.11A5.483 5.483 0 0 0 5.5 11c0 1.519.616 2.894 1.61 3.89l-1.295 1.295z"/>
        <path d="M3.222 18.778A10.966 10.966 0 0 1 0 11c0-3.038 1.231-5.788 3.222-7.778l1.296 1.296A9.138 9.138 0 0 0 1.833 11a9.138 9.138 0 0 0 2.685 6.482l-1.296 1.296zM16.185 5.815A7.31 7.31 0 0 1 18.333 11a7.31 7.31 0 0 1-2.148 5.185L14.89 14.89A5.483 5.483 0 0 0 16.5 11a5.483 5.483 0 0 0-1.61-3.89l1.295-1.295z"/>
        <path d="M18.778 3.222A10.966 10.966 0 0 1 22 11c0 3.038-1.231 5.788-3.222 7.778l-1.296-1.296A9.138 9.138 0 0 0 20.167 11a9.138 9.138 0 0 0-2.685-6.482l1.296-1.296z"/>
        <circle cx="15.583" cy="15.583" r="1"/>
        <circle cx="15.504" cy="6.43" r="1"/>
        <circle cx="18.071" cy="3.811" r="1"/>
        <circle cx="18.109" cy="18.146" r="1"/>
    </g>
</svg>
