<svg xmlns="http://www.w3.org/2000/svg" width="35" height="35" viewBox="0 0 40 40">
    <path fill="#f0f0f0" fill-rule="evenodd" d="M8 12.802C8 11.807 8.799 11 9.804 11h20.392c.996 0 1.804.815 1.804 1.798v14.298c0 .993-.808 1.798-1.806 1.798h-16.67c-.502 0-1.256.213-1.67.467l-2.317 1.418c-.849.52-1.537.128-1.537-.862V12.802zm5.538 9.104c1.02 0 1.847-.813 1.847-1.816 0-1.004-.827-1.817-1.847-1.817s-1.846.813-1.846 1.817c0 1.003.827 1.816 1.846 1.816zm6.462 0c1.02 0 1.846-.813 1.846-1.816 0-1.004-.826-1.817-1.846-1.817s-1.846.813-1.846 1.817c0 1.003.826 1.816 1.846 1.816zm6.462 0c1.02 0 1.846-.813 1.846-1.816 0-1.004-.827-1.817-1.846-1.817-1.02 0-1.847.813-1.847 1.817 0 1.003.827 1.816 1.847 1.816z"/>
</svg>
