<svg width="24" height="24" viewBox="0 0 24 24" fill="none" xmlns="http://www.w3.org/2000/svg">
<circle cx="12" cy="12" r="12" fill="white"/>
<path d="M18.8124 9.2951H5.21057V17.6341H18.8124V9.2951Z" fill="#F0F1F1"/>
<path d="M18.8111 17.4662H5.76405C5.59613 17.4662 5.40084 17.4388 5.23416 17.4662C5.2267 17.4674 5.21799 17.4662 5.20928 17.4662C5.26526 17.5221 5.32123 17.5781 5.37721 17.6341V9.29513C5.32123 9.3511 5.26526 9.40708 5.20928 9.46305H18.2576C18.4255 9.46305 18.6208 9.49042 18.7875 9.46305C18.7949 9.46181 18.8036 9.46305 18.8123 9.46305C18.7564 9.40708 18.7004 9.3511 18.6444 9.29513V17.6341C18.6444 17.8493 18.979 17.8505 18.979 17.6341V9.29513C18.979 9.20432 18.9019 9.1272 18.8111 9.1272H6.88479C6.33624 9.1272 5.78271 9.10357 5.2354 9.1272C5.2267 9.1272 5.21923 9.1272 5.21053 9.1272C5.11972 9.1272 5.0426 9.20432 5.0426 9.29513V17.6341C5.0426 17.7249 5.11972 17.802 5.21053 17.802H17.1368C17.6854 17.802 18.2389 17.8256 18.7862 17.802C18.7949 17.802 18.8024 17.802 18.8111 17.802C19.0263 17.802 19.0275 17.4674 18.8111 17.4674V17.4662Z" fill="#424243"/>
<path d="M17.556 12.1088H14.4326V17.6341H17.556V12.1088Z" fill="#CF6C65"/>
<path d="M17.5548 17.4662H14.4314C14.4873 17.5221 14.5433 17.5781 14.5993 17.6341V12.1088C14.5433 12.1648 14.4873 12.2207 14.4314 12.2767H17.5548C17.4988 12.2207 17.4428 12.1648 17.3868 12.1088V17.6341C17.3868 17.8493 17.7214 17.8505 17.7214 17.6341V12.1088C17.7214 12.018 17.6443 11.9409 17.5535 11.9409H14.4301C14.3393 11.9409 14.2622 12.018 14.2622 12.1088V17.6341C14.2622 17.7249 14.3393 17.802 14.4301 17.802H17.5535C17.7687 17.802 17.7699 17.4674 17.5535 17.4674L17.5548 17.4662Z" fill="#424243"/>
<path d="M12.8803 12.1088H6.67957V14.7047H12.8803V12.1088Z" fill="#9ED1E3"/>
<path d="M12.8802 14.5381H6.67952C6.73549 14.594 6.79147 14.65 6.84744 14.706V12.11C6.79147 12.166 6.73549 12.2219 6.67952 12.2779H12.8802L12.7123 12.11V14.706C12.7123 14.9212 13.0469 14.9224 13.0469 14.706V12.11C13.0469 12.0192 12.9698 11.9421 12.879 11.9421H6.67952C6.58872 11.9421 6.5116 12.0192 6.5116 12.11V14.706C6.5116 14.7968 6.58872 14.8739 6.67952 14.8739H12.8802C13.0954 14.8739 13.0967 14.5393 12.8802 14.5393V14.5381Z" fill="#424243"/>
<path d="M6.35876 9.33863L7.04539 5.16791H8.83781L8.60396 9.33863C8.60396 9.33863 8.53679 10.4606 7.48199 10.4606C6.42718 10.4606 6.36001 9.33863 6.36001 9.33863H6.35876Z" fill="#F0F1F1"/>
<path d="M6.52042 9.38343L7.12121 5.73389C7.14982 5.55975 7.17843 5.38685 7.20704 5.2127C7.15355 5.25375 7.09882 5.2948 7.04534 5.33585H8.83776C8.78179 5.27987 8.72581 5.2239 8.66984 5.16792C8.61387 6.16925 8.55789 7.17057 8.50067 8.17313C8.47953 8.55998 8.45714 8.94682 8.43599 9.33367C8.43599 9.3374 8.43599 9.34113 8.43599 9.34487C8.43226 9.39835 8.43848 9.34487 8.43102 9.38467C8.4136 9.48791 8.38872 9.58991 8.35141 9.68693C8.24319 9.97178 8.03049 10.1957 7.72822 10.2666C7.33516 10.3599 6.91597 10.228 6.70327 9.876C6.63112 9.75659 6.58386 9.62723 6.55276 9.49289C6.54281 9.44811 6.5341 9.40333 6.52788 9.3573C6.5341 9.3996 6.52788 9.35606 6.52788 9.3374C6.5142 9.12345 6.1796 9.12221 6.19328 9.3374C6.22811 9.88346 6.56271 10.4295 7.11002 10.58C7.5205 10.6932 7.99317 10.6161 8.31658 10.33C8.54048 10.1322 8.67979 9.84242 8.74074 9.55384C8.80294 9.26401 8.79423 8.95553 8.8104 8.66198C8.84896 7.97411 8.88752 7.28625 8.92608 6.59838C8.95344 6.12198 8.97957 5.64557 9.00693 5.16792C9.01066 5.07712 8.92483 5 8.83776 5H7.04534C6.97817 5 6.89607 5.051 6.88363 5.12314L6.28284 8.77268C6.25423 8.94682 6.22562 9.11972 6.19701 9.29387C6.16218 9.50533 6.48559 9.59488 6.52042 9.38343Z" fill="#424243"/>
<path d="M10.8479 9.33863V5.16791H13.0919V9.33863C13.0919 9.33863 13.0583 10.4606 11.9699 10.4606C10.8815 10.4606 10.8479 9.33863 10.8479 9.33863Z" fill="#F0F1F1"/>
<path d="M11.0158 9.33862V5.1679L10.8479 5.33582H13.0918C13.0358 5.27985 12.9799 5.22387 12.9239 5.1679V8.23655C12.9239 8.60225 12.9388 8.97168 12.9239 9.33738C12.9239 9.34484 12.9239 9.35355 12.9226 9.36101C12.9226 9.37221 12.9202 9.38216 12.9202 9.39335C12.9164 9.44062 12.9202 9.39584 12.9164 9.42321C12.899 9.53018 12.8729 9.63715 12.8306 9.73791C12.7124 10.0215 12.4848 10.2218 12.1788 10.2765C11.7783 10.3499 11.3678 10.2143 11.1638 9.8511C11.1016 9.73915 11.0618 9.61725 11.0357 9.49286C11.0195 9.41326 11.0183 9.42196 11.0145 9.33987C11.0071 9.12468 10.6725 9.12343 10.6799 9.33987C10.6986 9.87473 11.0183 10.4034 11.5419 10.5688C11.9487 10.6969 12.4438 10.636 12.7796 10.3636C13.0122 10.1745 13.159 9.89215 13.2224 9.60108C13.2859 9.31375 13.2597 9.01024 13.2597 8.71917C13.2597 8.02758 13.2597 7.33598 13.2597 6.64314C13.2597 6.15181 13.2597 5.66048 13.2597 5.16914C13.2597 5.07834 13.1826 5.00122 13.0918 5.00122H10.8479C10.7571 5.00122 10.6799 5.07834 10.6799 5.16914V9.33862C10.6799 9.55381 11.0145 9.55506 11.0145 9.33862H11.0158Z" fill="#424243"/>
<path d="M15.3371 9.33863L15.2699 5.16791H17.1295L17.5823 9.33863C17.5823 9.33863 17.5313 10.2939 16.5934 10.4444C15.6555 10.5949 15.3595 9.74289 15.3371 9.33863Z" fill="#F0F1F1"/>
<path d="M15.505 9.33865C15.4851 8.11965 15.4652 6.90065 15.4465 5.68165C15.444 5.50999 15.4415 5.33958 15.4378 5.16792C15.3818 5.2239 15.3258 5.27987 15.2699 5.33585H17.1295C17.0735 5.27987 17.0175 5.2239 16.9615 5.16792C17.0611 6.08715 17.1606 7.00637 17.2601 7.92436C17.3073 8.36593 17.3558 8.80627 17.4031 9.24784C17.4068 9.2777 17.4106 9.3063 17.4131 9.33616C17.4131 9.34238 17.4131 9.3486 17.4131 9.35357C17.4131 9.40208 17.4168 9.3486 17.4044 9.40955C17.3546 9.65459 17.2551 9.88595 17.0648 10.0539C16.7625 10.3201 16.2339 10.3922 15.9018 10.1409C15.6604 9.9581 15.5249 9.63344 15.505 9.33616C15.49 9.12221 15.1554 9.12097 15.1704 9.33616C15.2201 10.0738 15.7649 10.7069 16.5448 10.6161C17.1755 10.5427 17.7315 10.0141 17.7477 9.35482C17.7551 9.05255 17.6842 8.73163 17.6506 8.43186C17.5797 7.77758 17.5088 7.1233 17.4379 6.46902L17.2961 5.16544C17.2862 5.07712 17.2277 5 17.1295 5H15.2699C15.1803 5 15.1007 5.07712 15.1019 5.16792C15.1218 6.38692 15.1417 7.60592 15.1604 8.82492L15.1691 9.33865C15.1728 9.55384 15.5074 9.55508 15.5037 9.33865H15.505Z" fill="#424243"/>
<path d="M19.8263 9.33863L18.9543 5.16791H17.1283L17.5811 9.33863C17.5811 9.33863 17.5811 10.4606 18.703 10.4606C19.825 10.4606 19.825 9.33863 19.825 9.33863H19.8263Z" fill="#CF6C65"/>
<path d="M19.9879 9.29387C19.7329 8.07611 19.4792 6.85711 19.2242 5.63935C19.1881 5.4677 19.152 5.2948 19.116 5.12314C19.101 5.05224 19.0252 5 18.9543 5H17.1282C17.0449 5 16.9504 5.07712 16.9603 5.16792C17.081 6.27995 17.2016 7.39198 17.3223 8.504C17.3559 8.81622 17.3857 9.12967 17.4206 9.44189C17.4504 9.71678 17.5425 9.98546 17.7178 10.2019C17.9815 10.529 18.4057 10.6534 18.8149 10.6236C19.4991 10.5738 19.9892 10.0203 19.9916 9.3374C19.9916 9.12221 19.6583 9.12097 19.657 9.3374C19.657 9.47174 19.6272 9.6123 19.5625 9.76405C19.4356 10.0613 19.1782 10.2467 18.8572 10.284C18.4978 10.3263 18.1171 10.2268 17.9169 9.9071C17.8111 9.73793 17.7614 9.52523 17.7489 9.36725C17.6731 8.40574 17.5425 7.44546 17.4392 6.48643C17.3919 6.0461 17.3434 5.60701 17.2962 5.16668C17.2402 5.22265 17.1842 5.27863 17.1282 5.3346H18.9543C18.9008 5.29356 18.846 5.25251 18.7925 5.21146C19.0475 6.42922 19.3013 7.64822 19.5563 8.86597C19.5924 9.03763 19.6284 9.21053 19.6645 9.38218C19.708 9.59364 20.0315 9.50408 19.9879 9.29262V9.29387Z" fill="#424243"/>
<path d="M8.83773 5.16791H10.8478V9.33863C10.8478 9.33863 10.7309 10.4444 9.72586 10.4606C8.72081 10.4768 8.60388 9.33863 8.60388 9.33863L8.83773 5.16791Z" fill="#CF6C65"/>
<path d="M8.83768 5.3346H10.8478C10.7918 5.27863 10.7358 5.22265 10.6799 5.16668V9.25157C10.6799 9.2777 10.6799 9.30382 10.6799 9.32869C10.6799 9.36601 10.6923 9.2777 10.6774 9.34735C10.5866 9.77649 10.3602 10.1919 9.89125 10.2765C9.34767 10.376 8.95461 10.0215 8.8128 9.52398C8.79539 9.46179 8.78046 9.39835 8.77051 9.33491C8.76429 9.29387 8.76802 9.37099 8.77051 9.32496C8.77549 9.23416 8.78046 9.14336 8.78544 9.05255C8.81032 8.6172 8.83395 8.18184 8.85883 7.74648C8.90734 6.88696 8.95585 6.0262 9.00436 5.16668C9.0168 4.95149 8.68095 4.95149 8.66976 5.16668C8.62622 5.95032 8.58144 6.73397 8.53791 7.51761C8.51054 7.99775 8.48442 8.47788 8.45705 8.95802C8.44586 9.15206 8.42347 9.32994 8.46576 9.52025C8.57522 10.0066 8.89117 10.4743 9.40116 10.5937C10.0268 10.7405 10.6202 10.4196 10.8739 9.84117C10.9672 9.62847 11.0145 9.42074 11.0145 9.19187V7.95919C11.0145 7.04867 11.0306 6.13566 11.0145 5.22514C11.0145 5.20648 11.0145 5.18658 11.0145 5.16792C11.0157 5.07712 10.9386 5 10.8478 5H8.83768C8.62249 5 8.62125 5.3346 8.83768 5.3346Z" fill="#424243"/>
<path d="M13.0918 5.16791V9.33863C13.0918 9.33863 13.1428 10.478 14.2138 10.4606C15.2848 10.4432 15.3358 9.33863 15.3358 9.33863L15.2686 5.16791H13.0906H13.0918Z" fill="#CF6C65"/>
<path d="M12.9252 5.16792C12.9252 5.96276 12.9252 6.75884 12.9252 7.55368C12.9252 8.03382 12.9252 8.5152 12.9252 8.99534C12.9252 9.18565 12.9177 9.36974 12.955 9.55757C13.0533 10.0539 13.3854 10.4979 13.9016 10.6012C14.5372 10.7281 15.1455 10.4357 15.3905 9.83122C15.4726 9.62847 15.5062 9.42323 15.5025 9.20679C15.4963 8.79631 15.4888 8.38708 15.4826 7.9766C15.4677 7.05986 15.4677 6.14188 15.4378 5.22639C15.4378 5.20773 15.4378 5.18783 15.4378 5.16917C15.4353 5.07712 15.3619 5 15.2699 5H13.0918C12.8767 5 12.8754 5.3346 13.0918 5.3346H15.2699C15.2139 5.27863 15.1579 5.22265 15.102 5.16668C15.1144 5.91176 15.1256 6.65685 15.138 7.40193C15.1455 7.88331 15.153 8.36469 15.1617 8.84607C15.1642 9.02519 15.1816 9.20928 15.1654 9.3884C15.1617 9.42945 15.1716 9.3486 15.1654 9.39586C15.1629 9.41203 15.1604 9.4282 15.1567 9.44438C15.1492 9.48294 15.1405 9.5215 15.1306 9.56006C15.1032 9.65957 15.0671 9.75534 15.0149 9.8449C14.8868 10.0688 14.6828 10.2181 14.429 10.2716C13.8767 10.3872 13.4352 10.0825 13.2996 9.55384C13.2722 9.44562 13.2635 9.40955 13.2623 9.33367C13.261 9.25157 13.2623 9.16823 13.2623 9.08614C13.2623 8.657 13.2623 8.22786 13.2623 7.79997V5.16792C13.2623 4.95273 12.9277 4.95149 12.9277 5.16792H12.9252Z" fill="#424243"/>
<path d="M7.0453 5.16791C6.94704 5.76621 6.84877 6.36452 6.74926 6.96282C6.62487 7.72034 6.49427 8.47787 6.37485 9.23663C6.32883 9.5277 6.2741 9.79265 6.09125 10.0364C5.88601 10.3101 5.5738 10.4507 5.23546 10.4606C4.19682 10.4942 4.19434 9.30505 4.19434 9.30505L5.30387 5.16791H7.0453Z" fill="#CF6C65"/>
<path d="M6.88361 5.12314C6.76419 5.85081 6.64478 6.57972 6.52413 7.30739C6.46069 7.68678 6.39725 8.06491 6.33506 8.4443C6.27784 8.78885 6.24177 9.14336 6.15967 9.48294C6.08753 9.78022 5.93328 10.0489 5.65217 10.1919C5.43325 10.3027 5.15337 10.33 4.91828 10.2541C4.61353 10.1546 4.46053 9.85983 4.39585 9.56503C4.37346 9.46428 4.38217 9.42074 4.36351 9.32248C4.35605 9.28143 4.35605 9.35606 4.35854 9.34487C4.36227 9.32869 4.36724 9.31252 4.37222 9.29635C4.42695 9.10853 4.47422 8.91697 4.52397 8.7279C4.70682 8.04377 4.89091 7.35964 5.07376 6.6755C5.20437 6.1879 5.33498 5.7003 5.46559 5.2127C5.4121 5.25375 5.35737 5.2948 5.30388 5.33585C5.88477 5.33585 6.46566 5.33585 7.04531 5.33585C7.2605 5.3346 7.26175 5 7.04531 5C6.46442 5 5.88353 5 5.30388 5C5.23049 5 5.16084 5.05224 5.14218 5.12314C4.82623 6.30234 4.51029 7.48154 4.19434 8.66198C4.14334 8.85105 4.08613 9.04011 4.04135 9.23167C4.00776 9.37845 4.04508 9.54389 4.07991 9.68693C4.16325 10.0327 4.36227 10.3673 4.69438 10.5228C5.18447 10.7529 5.83129 10.6074 6.17833 10.1944C6.41591 9.91332 6.49054 9.56876 6.54776 9.2155C6.6199 8.76024 6.69578 8.30623 6.77166 7.85097C6.91844 6.97155 7.06273 6.09212 7.20702 5.2127C7.24184 5.00124 6.91844 4.91168 6.88361 5.12314Z" fill="#424243"/>
<path d="M17.1033 13.4646H14.8867V14.1699H17.1033V13.4646Z" fill="#F0F1F1"/>
<path d="M17.1033 14.0853H14.8867C14.914 14.1126 14.9426 14.1413 14.97 14.1686V13.4633C14.9426 13.4907 14.914 13.5193 14.8867 13.5467H17.1033C17.0759 13.5193 17.0473 13.4907 17.0199 13.4633V14.1686C17.0199 14.2768 17.1878 14.2768 17.1878 14.1686V13.4633C17.1878 13.4186 17.1493 13.38 17.1045 13.38H14.8879C14.8431 13.38 14.8046 13.4186 14.8046 13.4633V14.1686C14.8046 14.2134 14.8431 14.252 14.8879 14.252H17.1045C17.2127 14.252 17.2127 14.084 17.1045 14.084L17.1033 14.0853Z" fill="#424243"/>
<path d="M15.934 12.5242C15.5645 12.8178 15.1951 13.1113 14.8269 13.4049C14.7672 13.4521 14.8195 13.5479 14.8866 13.5479H17.1032C17.1691 13.5479 17.2214 13.4521 17.1629 13.4049C16.7935 13.1113 16.4241 12.8178 16.0534 12.5242C15.97 12.4583 15.8506 12.5752 15.9352 12.6424C16.3047 12.9359 16.6741 13.2295 17.0448 13.523C17.0647 13.4758 17.0846 13.4273 17.1045 13.38H14.8879C14.9078 13.4273 14.9277 13.4758 14.9476 13.523C15.317 13.2295 15.6864 12.9359 16.0546 12.6424C16.1392 12.5752 16.0198 12.457 15.9365 12.5242H15.934Z" fill="#424243"/>
<g opacity="0.7">
<path d="M11.0456 13.1661C11.0481 13.1736 11.0481 13.181 11.0469 13.1872C11.0506 13.3054 10.9835 13.3465 10.8852 13.3539V14.1027H11.0991V13.8987C11.0991 13.8453 11.1825 13.8453 11.1825 13.8987V14.1027H11.4002V13.7893C11.4002 13.7358 11.4835 13.7358 11.4835 13.7893V14.1027H11.6838C11.6838 13.854 11.6838 13.6039 11.6838 13.3552H11.4238C11.3703 13.3552 11.3703 13.2718 11.4238 13.2718H11.7074C11.7074 13.2718 11.7149 13.2731 11.7173 13.2743C11.7198 13.2743 11.7223 13.2731 11.726 13.2718C11.7845 13.2669 11.7895 13.2171 11.7969 13.1748C11.7833 12.9036 11.18 12.9385 10.9847 12.9285C10.9038 12.9248 10.8242 12.9248 10.7446 12.9285C10.8653 12.9708 11.0034 13.043 11.0469 13.1661H11.0456Z" fill="#E9B13D"/>
<path d="M11.8777 13.186C11.8827 13.1561 11.8591 13.1375 11.8354 13.1362C11.8379 13.1487 11.8379 13.1624 11.8367 13.1773C11.8367 13.1885 11.8329 13.2009 11.8304 13.2134V13.2158C11.8479 13.2196 11.869 13.2134 11.8765 13.1947C11.8765 13.1947 11.8765 13.1885 11.8765 13.186H11.8777Z" fill="#424243"/>
<path d="M10.6065 12.8924C10.762 12.8787 10.9187 12.8825 11.0755 12.8924C11.1974 12.9011 11.3205 12.9111 11.4424 12.9223C11.5469 12.9322 11.6526 12.9322 11.7484 12.9994C11.7882 13.0268 11.828 13.0753 11.8367 13.135C11.8603 13.1362 11.8827 13.1561 11.879 13.1847C11.879 13.181 11.8802 13.1785 11.8802 13.1748C11.8678 12.8763 11.5108 12.885 11.2894 12.8663C10.9996 12.8414 10.7197 12.8315 10.4324 12.8763C10.4908 12.8763 10.5493 12.8812 10.6078 12.8912L10.6065 12.8924Z" fill="#424243"/>
<path d="M11.8305 13.2158C11.813 13.278 11.8093 13.3079 11.7459 13.3141C11.7459 13.3303 11.7397 13.3452 11.7247 13.3527V13.3576C11.7384 13.3439 11.7521 13.3303 11.767 13.3153V13.3502C11.8392 13.3315 11.8603 13.2805 11.8765 13.1959C11.869 13.2146 11.8491 13.2208 11.8305 13.2171V13.2158Z" fill="#424243"/>
<path d="M11.7248 14.1039V14.1462H11.4835C11.4835 14.1997 11.4002 14.1997 11.4002 14.1462H11.1825C11.1825 14.1997 11.0991 14.1997 11.0991 14.1462H10.8852C10.8852 14.1686 10.8665 14.1885 10.8429 14.1885H11.7248C11.7472 14.1885 11.7671 14.1699 11.7671 14.1462C11.7671 13.8813 11.7671 13.6151 11.7671 13.3502C11.7547 13.3539 11.741 13.3564 11.7248 13.3576V14.1052V14.1039Z" fill="#424243"/>
<path d="M11.7247 13.3564C11.7409 13.3551 11.7546 13.3526 11.767 13.3489V13.3141C11.7533 13.3278 11.7397 13.3415 11.7247 13.3564Z" fill="#424243"/>
<path d="M11.7957 13.1772C11.7882 13.2183 11.7832 13.268 11.7248 13.273C11.7223 13.273 11.7186 13.2743 11.7161 13.2755C11.7347 13.2805 11.7459 13.2967 11.7459 13.3141C11.8081 13.3091 11.8131 13.278 11.8305 13.2158C11.8131 13.2121 11.7969 13.1996 11.7957 13.1772Z" fill="#424243"/>
<path d="M11.6837 13.3564C11.6837 13.6052 11.6837 13.8552 11.6837 14.104H11.726V13.3527C11.726 13.3527 11.7148 13.3576 11.7073 13.3576H11.685L11.6837 13.3564Z" fill="#424243"/>
<path d="M11.6837 14.1462C11.6974 14.1326 11.7111 14.1189 11.726 14.1039H11.6837V14.1462Z" fill="#424243"/>
<path d="M11.4834 14.1039V14.1462H11.6837V14.1039H11.4834Z" fill="#424243"/>
<path d="M11.7248 14.1462V14.1039C11.7111 14.1176 11.6974 14.1313 11.6825 14.1462H11.7248Z" fill="#424243"/>
<path d="M11.7484 13.0007C11.6514 12.9335 11.5457 12.9335 11.4425 12.9235C11.3206 12.9124 11.1987 12.9012 11.0755 12.8937C10.92 12.8825 10.7621 12.8788 10.6066 12.8937C10.6402 12.8999 10.6725 12.9074 10.7048 12.9173C10.7173 12.9211 10.731 12.926 10.7446 12.931C10.8242 12.9273 10.9039 12.9273 10.9847 12.931C11.18 12.941 11.7833 12.9061 11.797 13.1773C11.797 13.1736 11.797 13.1711 11.7982 13.1673C11.8019 13.145 11.8193 13.1363 11.8368 13.1375C11.8281 13.0765 11.7883 13.0293 11.7484 13.0019V13.0007Z" fill="#424243"/>
<path d="M11.7981 13.1661C11.7981 13.1661 11.7981 13.1723 11.7969 13.176C11.7969 13.1997 11.8143 13.2121 11.8317 13.2158V13.2133C11.8354 13.2009 11.8379 13.1885 11.8392 13.1773C11.8404 13.1636 11.8392 13.1499 11.8379 13.1362C11.8205 13.135 11.8031 13.1437 11.7994 13.1661H11.7981Z" fill="#424243"/>
<path d="M10.8851 14.1039V14.1462H11.0991V14.1039H10.8851Z" fill="#424243"/>
<path d="M11.1824 14.1039V14.1462H11.4001V14.1039H11.1824Z" fill="#424243"/>
<path d="M10.3478 12.9671C10.2359 12.9807 10.1252 13.0156 10.0294 13.0778C10.012 13.0902 9.99332 13.0865 9.97591 13.1001C9.95725 13.1151 9.94108 13.1312 9.92491 13.1487C9.91745 13.1586 9.90874 13.1686 9.90625 13.1798C9.89879 13.2046 9.91372 13.2308 9.93362 13.2457C9.97093 13.2718 10.0841 13.2531 10.0841 13.3141V14.104H10.6687C10.5829 13.7233 10.4959 13.3427 10.41 12.9633C10.3876 12.9633 10.3665 12.9658 10.3478 12.9683V12.9671Z" fill="#F0F1F1"/>
<path d="M10.7533 14.1002C10.7533 14.1002 10.7533 14.1002 10.7533 14.099C10.7471 14.0965 10.7396 14.0977 10.726 14.104C10.7322 14.1015 10.7421 14.1002 10.7533 14.1002Z" fill="#F0F1F1"/>
<path d="M10.6924 13.8303C10.7085 13.9024 10.7608 14.0219 10.7533 14.0965C10.7533 14.0965 10.7533 14.0965 10.7533 14.0977C10.7546 14.0977 10.757 14.0977 10.7583 14.1002C10.7745 14.1002 10.7894 14.1027 10.8018 14.1027V13.3141C10.8018 13.2917 10.8205 13.2718 10.8441 13.2718C10.8976 13.2718 10.9673 13.2855 10.9648 13.1847C10.9076 13.033 10.6787 12.9733 10.4971 12.9633C10.5331 13.1225 10.5692 13.2805 10.6053 13.4397C10.6351 13.5703 10.6638 13.6997 10.6936 13.8303H10.6924Z" fill="#F0F1F1"/>
<path d="M10.7533 14.1002V14.104H10.7608C10.7608 14.104 10.7608 14.1015 10.7583 14.1002H10.7533Z" fill="#F0F1F1"/>
<path d="M10.41 12.9621C10.4959 13.3427 10.5829 13.7233 10.6688 14.1027H10.7111C10.6688 13.9161 10.4959 13.1536 10.4523 12.9608C10.4374 12.9608 10.4237 12.9608 10.41 12.9608V12.9621Z" fill="#F0F1F1"/>
<path d="M10.7571 14.1002C10.7571 14.1002 10.7583 14.1027 10.7596 14.104H10.8006C10.7882 14.1027 10.7733 14.1015 10.7571 14.1002Z" fill="#F0F1F1"/>
<path d="M10.7533 14.0978C10.7533 14.0978 10.7533 14.0978 10.7533 14.0965C10.7608 14.0219 10.7098 13.9025 10.6923 13.8303C10.6625 13.6997 10.6339 13.5704 10.604 13.4397C10.568 13.2805 10.5319 13.1226 10.4958 12.9633C10.4809 12.9633 10.4672 12.9621 10.4523 12.9621C10.4958 13.1537 10.6687 13.9174 10.711 14.104H10.7247C10.7384 14.0965 10.7471 14.0965 10.752 14.099L10.7533 14.0978Z" fill="#F0F1F1"/>
<path d="M10.7533 14.0977C10.7533 14.0977 10.7533 14.0977 10.7533 14.099H10.7583C10.7583 14.099 10.7558 14.0977 10.7533 14.0977Z" fill="#F0F1F1"/>
<path d="M10.7247 14.104H10.7521V14.1002C10.7409 14.1002 10.731 14.1002 10.7247 14.104Z" fill="#F0F1F1"/>
<path d="M10.6811 14.1562L10.6786 14.145H10.043V13.3551C10.0293 13.3551 10.0157 13.3551 10.0007 13.3539V14.145C10.0007 14.1674 10.0194 14.1873 10.043 14.1873H10.7222C10.7048 14.1873 10.6861 14.1748 10.6824 14.1562H10.6811Z" fill="#424243"/>
<path d="M10.0007 13.3141V13.3539C10.0144 13.3539 10.0293 13.3552 10.043 13.3552C10.0293 13.3415 10.0157 13.3278 10.0007 13.3129V13.3141Z" fill="#424243"/>
<path d="M9.97214 13.3141C9.90373 13.3141 9.85273 13.2382 9.87636 13.176C9.89751 13.1213 9.96095 13.0715 10.0082 13.0404C10.1227 12.967 10.2657 12.9272 10.4025 12.9198C10.4025 12.9011 10.4112 12.88 10.4311 12.8762C10.3217 12.8775 10.211 12.8986 10.109 12.9409C10.0045 12.9844 9.8179 13.0802 9.8291 13.2183C9.8378 13.3203 9.91741 13.3464 10.0008 13.3526V13.3128H9.97214V13.3141Z" fill="#424243"/>
<path d="M10.0007 13.3141C10.0144 13.3278 10.0281 13.3415 10.043 13.3564V13.3141H10.0007Z" fill="#424243"/>
<path d="M10.8777 13.0417C10.9163 13.0666 10.9635 13.0989 10.9884 13.14C11.012 13.1325 11.0444 13.1449 11.0469 13.1785C11.0469 13.1823 11.0469 13.1847 11.0469 13.1885C11.0481 13.1823 11.0481 13.1748 11.0456 13.1673C11.0021 13.0442 10.8653 12.9733 10.7434 12.9297C10.7011 12.9322 10.6575 12.9347 10.6152 12.9385C10.7085 12.9584 10.7993 12.9907 10.8764 13.0417H10.8777Z" fill="#424243"/>
<path d="M11.007 13.217C11.0021 13.268 10.9697 13.3141 10.9137 13.3141H10.8851V13.3539C10.9834 13.3464 11.0506 13.3041 11.0468 13.1872C11.0431 13.2046 11.0257 13.2158 11.007 13.217Z" fill="#424243"/>
<path d="M10.8429 13.3564C10.8578 13.3564 10.8715 13.3564 10.8852 13.3552V13.3154C10.8715 13.3291 10.8578 13.3427 10.8429 13.3577V13.3564Z" fill="#424243"/>
<path d="M10.8429 13.3564V14.104H10.8852V13.3552C10.8715 13.3552 10.8578 13.3564 10.8429 13.3564Z" fill="#424243"/>
<path d="M10.8429 13.3141V13.3564C10.8566 13.3427 10.8703 13.329 10.8852 13.3141H10.8429Z" fill="#424243"/>
<path d="M11.0046 13.1772C11.0071 13.1897 11.0071 13.2034 11.0071 13.2171C11.0257 13.2171 11.0431 13.2059 11.0469 13.1872C11.0469 13.1835 11.0469 13.181 11.0469 13.1772C11.0444 13.1437 11.012 13.1312 10.9884 13.1387C10.9909 13.1424 10.9934 13.1449 10.9946 13.1486C10.9996 13.1573 11.0021 13.1673 11.0046 13.1772Z" fill="#424243"/>
<path d="M10.4833 12.9061L10.4808 12.9111H10.4846V12.9061H10.4833Z" fill="#424243"/>
<path d="M10.4012 12.921C10.4149 12.921 10.4286 12.9185 10.4423 12.9185C10.4423 12.9185 10.4584 12.916 10.4796 12.9123L10.4821 12.9073V12.9123C10.5244 12.9048 10.5816 12.8961 10.5866 12.8949C10.5928 12.8949 10.599 12.8949 10.6052 12.8937C10.5468 12.8825 10.4883 12.8775 10.4298 12.8787C10.4099 12.8825 10.4 12.9036 10.4012 12.9223V12.921Z" fill="#424243"/>
<path d="M10.8852 14.1462H10.6787L10.6812 14.1574C10.6849 14.1748 10.7036 14.1885 10.721 14.1885H10.8429C10.8653 14.1885 10.8852 14.1699 10.8852 14.1462Z" fill="#424243"/>
<path d="M10.6152 12.9384C10.6575 12.9347 10.7011 12.931 10.7434 12.9297C10.7297 12.9247 10.7172 12.921 10.7036 12.916C10.6712 12.9061 10.6376 12.8986 10.6053 12.8924C10.5991 12.8924 10.5929 12.8924 10.5866 12.8936C10.5817 12.8936 10.5244 12.9036 10.4834 12.9111L10.4859 12.921C10.5294 12.9235 10.5717 12.9297 10.6152 12.9384Z" fill="#424243"/>
<path d="M10.8429 14.1039V14.1462H10.8852V14.1039H10.8429Z" fill="#424243"/>
<path d="M10.4858 12.921L10.4833 12.9111H10.4796L10.4746 12.9198C10.4746 12.9198 10.4821 12.9198 10.4858 12.9198V12.921Z" fill="#424243"/>
<path d="M10.4797 12.9111C10.4586 12.9148 10.4424 12.9173 10.4424 12.9173C10.4536 12.9173 10.4648 12.9185 10.4747 12.9198L10.4797 12.9111Z" fill="#424243"/>
<path d="M10.0841 14.1039V14.1462H10.6787L10.6687 14.1039H10.0841Z" fill="#424243"/>
<path d="M10.0417 14.1462H10.084L10.0417 14.1039V14.1462Z" fill="#424243"/>
<path d="M10.0417 14.1039L10.084 14.1462V14.1039H10.0417Z" fill="#424243"/>
<path d="M10.0841 13.3141C10.0841 13.2445 9.96717 13.288 9.93856 13.2345C9.92488 13.2084 9.92986 13.176 9.94478 13.1512C9.96469 13.1176 9.99827 13.1002 10.0281 13.0778C10.1239 13.0156 10.2346 12.9808 10.3466 12.9671C10.3652 12.9646 10.3864 12.9633 10.4088 12.9621L10.4013 12.9285C10.4013 12.9285 10.4013 12.9235 10.4013 12.9198C10.2645 12.9273 10.1214 12.9671 10.007 13.0405C9.95971 13.0716 9.89627 13.1201 9.87513 13.176C9.85149 13.2382 9.90249 13.3141 9.97091 13.3141H10.0418V14.104H10.0841V13.3141Z" fill="#424243"/>
<path d="M10.9635 13.1773C10.9635 13.1773 10.9635 13.1823 10.9635 13.1848C10.9635 13.186 10.9635 13.1872 10.9647 13.1885C10.9722 13.2096 10.9896 13.2171 11.007 13.2171C11.007 13.2034 11.007 13.191 11.0045 13.1773C11.002 13.1673 10.9995 13.1574 10.9946 13.1487C10.9933 13.145 10.9896 13.1425 10.9884 13.1387C10.9734 13.1437 10.9622 13.1561 10.9635 13.1773Z" fill="#424243"/>
<path d="M10.7596 14.1039H10.7521C10.7496 14.1425 10.7658 14.1176 10.7596 14.1039Z" fill="#424243"/>
<path d="M10.9636 13.1847C10.9636 13.1847 10.9636 13.1798 10.9636 13.1773C10.9623 13.1561 10.9735 13.1437 10.9884 13.1387C10.9636 13.0977 10.9163 13.0653 10.8777 13.0404C10.8006 12.9907 10.7086 12.9571 10.6165 12.9372C10.5755 12.9409 10.5357 12.9459 10.4946 12.9521L10.4971 12.9633C10.6787 12.9733 10.9076 13.033 10.9648 13.1847H10.9636Z" fill="#424243"/>
<path d="M10.8428 13.3141H10.9137C10.9697 13.3141 11.0033 13.2668 11.007 13.2171C10.9896 13.2171 10.9722 13.2096 10.9647 13.1885C10.9647 13.1872 10.9647 13.186 10.9635 13.1848C10.966 13.2855 10.8976 13.2718 10.8428 13.2718C10.8204 13.2718 10.8005 13.2905 10.8005 13.3141V14.1027C10.8005 14.1027 10.808 14.1027 10.8105 14.1027H10.8428V13.3129V13.3141Z" fill="#424243"/>
<path d="M10.6687 14.1039L10.6787 14.1462H10.7209L10.711 14.1039H10.6687Z" fill="#424243"/>
<path d="M10.41 12.9621C10.4236 12.9621 10.4373 12.9621 10.4522 12.9621L10.4423 12.9173C10.4286 12.9173 10.4149 12.9198 10.4012 12.9198C10.4012 12.9223 10.4012 12.9248 10.4012 12.9285L10.4087 12.9621H10.41Z" fill="#424243"/>
<path d="M10.4858 12.921L10.4933 12.9534C10.5344 12.9471 10.5742 12.9422 10.6152 12.9384C10.5717 12.9297 10.5294 12.9235 10.4858 12.921Z" fill="#424243"/>
<path d="M10.4746 12.9198C10.4672 12.9322 10.4597 12.9447 10.4535 12.9584C10.4672 12.9559 10.4796 12.9546 10.4933 12.9534L10.4858 12.921C10.4858 12.921 10.4784 12.921 10.4746 12.921V12.9198Z" fill="#424243"/>
<path d="M10.4959 12.9633L10.4934 12.9521C10.4797 12.9534 10.4673 12.9546 10.4536 12.9571C10.461 12.9447 10.4685 12.9322 10.4747 12.9186C10.4635 12.9186 10.4523 12.9161 10.4424 12.9161L10.4523 12.9609C10.466 12.9609 10.4809 12.9609 10.4959 12.9621V12.9633Z" fill="#424243"/>
<path d="M10.7596 14.1039C10.7658 14.1176 10.7509 14.1425 10.7521 14.1039H10.7111L10.721 14.1462H10.8006V14.1039H10.7596Z" fill="#424243"/>
<path d="M10.8105 14.1039H10.8005V14.1462C10.8142 14.1326 10.8279 14.1189 10.8428 14.1039H10.8105Z" fill="#424243"/>
<path d="M10.8005 14.1462H10.8428V14.1039C10.8291 14.1176 10.8155 14.1313 10.8005 14.1462Z" fill="#424243"/>
<path d="M11.4226 13.273C11.3691 13.273 11.3691 13.3564 11.4226 13.3564H11.6825V13.3141C11.6825 13.2929 11.6975 13.2793 11.7161 13.2743C11.7124 13.2743 11.7099 13.2718 11.7062 13.2718H11.4226V13.273Z" fill="#424243"/>
<path d="M11.7247 13.3514C11.7397 13.344 11.7459 13.329 11.7459 13.3129C11.7397 13.3129 11.7322 13.3129 11.7247 13.3129V13.3502V13.3514Z" fill="#424243"/>
<path d="M11.7161 13.2743C11.6974 13.2793 11.6825 13.293 11.6825 13.3141V13.3564H11.7049C11.7123 13.3564 11.7186 13.3551 11.7235 13.3514V13.3141C11.731 13.3141 11.7385 13.3141 11.7447 13.3141C11.7447 13.2967 11.7335 13.2805 11.7148 13.2755L11.7161 13.2743Z" fill="#424243"/>
<path d="M11.0991 13.9V14.104H11.1414H11.1837V13.9C11.1837 13.8465 11.1004 13.8465 11.1004 13.9H11.0991Z" fill="#424243"/>
<path d="M11.0991 14.1462C11.0991 14.1997 11.1825 14.1997 11.1825 14.1462H11.0991Z" fill="#424243"/>
<path d="M11.1402 14.1039H11.0979V14.1462H11.1402V14.1039Z" fill="#424243"/>
<path d="M11.1737 14.1039H11.1414V14.1462H11.1836V14.1039H11.1749H11.1737Z" fill="#424243"/>
<path d="M11.4001 13.7905V14.1039H11.4424H11.4847V13.7905C11.4847 13.737 11.4014 13.737 11.4014 13.7905H11.4001Z" fill="#424243"/>
<path d="M11.4001 14.1462C11.4001 14.1997 11.4835 14.1997 11.4835 14.1462H11.4001Z" fill="#424243"/>
<path d="M11.4412 14.1039H11.3989V14.1462H11.4412V14.1039Z" fill="#424243"/>
<path d="M11.4412 14.1039V14.1462H11.4835V14.1039H11.4412Z" fill="#424243"/>
</g>
<g opacity="0.7">
<path d="M9.60391 14.1462C9.65615 14.1437 9.73825 14.1425 9.7793 14.1052C9.80417 14.0479 9.82905 13.9895 9.85393 13.9323C9.83278 13.9012 9.81288 13.8713 9.79173 13.8402C9.7681 13.8141 9.73452 13.793 9.70591 13.7731C9.60018 13.6997 9.48076 13.6375 9.36135 13.5877C9.2295 13.533 9.09143 13.4932 8.95212 13.4671C9.02302 13.5355 9.08148 13.6201 9.11009 13.7133C9.12626 13.7643 9.04541 13.7867 9.02924 13.7357C8.99441 13.625 8.90734 13.5255 8.81156 13.4596C8.80534 13.4546 8.80036 13.4496 8.79788 13.4434C8.7021 13.431 8.60508 13.4248 8.50805 13.4235C8.50059 13.4235 8.49313 13.4235 8.48566 13.4235C8.57398 13.4982 8.64861 13.5952 8.68344 13.7046C8.69961 13.7569 8.61876 13.778 8.60259 13.727C8.56776 13.6163 8.48069 13.5168 8.38491 13.4509C8.37496 13.4434 8.36998 13.4347 8.36749 13.426C8.25679 13.4297 8.14484 13.4409 8.03538 13.4584C8.12743 13.5342 8.20579 13.6337 8.24062 13.7469C8.25679 13.7992 8.17594 13.8203 8.15977 13.7693C8.12494 13.6586 8.03787 13.5591 7.94209 13.4932C7.93587 13.4894 7.93214 13.4845 7.92841 13.4783C7.83885 13.4969 7.74929 13.5205 7.66346 13.5504C7.52912 13.5964 7.39229 13.6561 7.27661 13.7407C7.18084 13.8104 6.97186 14.0815 7.20696 14.1475H7.98314C8.52174 14.1475 9.06531 14.1711 9.60266 14.1475L9.60391 14.1462Z" fill="#E9B13D"/>
<path d="M7.18957 14.2283C7.18957 14.2283 7.1933 14.2283 7.19454 14.2283C7.19081 14.2283 7.18708 14.2283 7.18335 14.2258C7.18584 14.2258 7.18708 14.2271 7.18832 14.2271L7.18957 14.2283Z" fill="#424243"/>
<path d="M7.24053 14.1872H7.20073C7.1858 14.1848 7.17461 14.1798 7.16217 14.1748C7.15719 14.1935 7.16341 14.2159 7.18207 14.2258H7.18331C7.18331 14.2258 7.19078 14.2283 7.19451 14.2283C7.22187 14.232 7.23929 14.2109 7.24053 14.1872Z" fill="#424243"/>
<path d="M9.88377 13.8141C9.80416 13.7109 9.66485 13.6424 9.5529 13.584C9.39741 13.5019 9.23073 13.4422 9.05908 13.4024C8.7394 13.329 8.40355 13.3203 8.0789 13.3651C7.75425 13.4098 7.35621 13.5143 7.1236 13.7619C6.99673 13.8974 6.96812 14.1624 7.18207 14.2246C7.16341 14.2159 7.15719 14.1935 7.16216 14.1736C7.05022 14.1238 7.04026 13.9435 7.10121 13.8539C7.1746 13.7482 7.28406 13.6748 7.39601 13.6151C7.56145 13.528 7.74306 13.4683 7.92964 13.431C7.93959 13.4123 7.96198 13.4011 7.98437 13.4161C7.98686 13.4173 7.9881 13.4185 7.98934 13.4198C8.11871 13.3974 8.24931 13.3837 8.37868 13.38C8.38987 13.3675 8.40729 13.3626 8.42594 13.375C8.42719 13.375 8.42968 13.3775 8.43092 13.3787C8.44709 13.3787 8.46326 13.3787 8.47819 13.3787C8.58392 13.3787 8.69089 13.3862 8.79786 13.3986C8.80781 13.38 8.8302 13.3675 8.85259 13.3837C8.86503 13.3924 8.87747 13.4011 8.88991 13.4111C9.13247 13.4496 9.37129 13.5255 9.58026 13.6462C9.67604 13.7009 9.78053 13.7569 9.85267 13.8427C9.91735 13.9198 9.91984 14.0455 9.83401 14.1151C9.77804 14.1586 9.69967 14.1873 9.63002 14.1873C9.48448 14.1873 8.62745 14.1873 8.34509 14.1873H7.24053C7.24053 14.2096 7.22187 14.232 7.19451 14.2283C7.19699 14.2283 7.19824 14.2283 7.20072 14.2283H9.18222C9.35263 14.2283 9.56285 14.2606 9.72953 14.2146C9.91611 14.1624 10.0106 13.977 9.88501 13.8128L9.88377 13.8141Z" fill="#424243"/>
<path d="M8.50803 13.4223C8.60505 13.4223 8.70207 13.4298 8.79785 13.4422C8.79039 13.4285 8.79163 13.4136 8.79785 13.3999C8.69088 13.3875 8.58391 13.38 8.47818 13.38C8.46201 13.38 8.44583 13.38 8.43091 13.38C8.44957 13.3924 8.46698 13.4061 8.48439 13.4211C8.49186 13.4211 8.49932 13.4211 8.50678 13.4211L8.50803 13.4223Z" fill="#424243"/>
<path d="M9.36128 13.5865C9.47945 13.6362 9.60011 13.6972 9.70584 13.7718C9.73445 13.7917 9.76803 13.8141 9.79166 13.839C9.81281 13.8701 9.83271 13.8999 9.85386 13.931C9.82898 13.9883 9.8041 14.0467 9.77922 14.1039C9.73818 14.1425 9.65732 14.1437 9.60384 14.145C9.06524 14.1686 8.52291 14.145 7.98431 14.145H7.20813C7.20813 14.145 7.21062 14.145 7.21186 14.1462C7.23301 14.1524 7.24171 14.1699 7.24047 14.186H8.34503C8.62864 14.186 9.48567 14.186 9.62996 14.186C9.70086 14.186 9.77923 14.1587 9.83396 14.1139C9.92103 14.0455 9.91854 13.9186 9.85261 13.8415C9.78047 13.7556 9.67598 13.7009 9.5802 13.6449C9.37123 13.5243 9.13241 13.4484 8.88985 13.4099C8.911 13.426 8.9309 13.4434 8.94956 13.4621C9.09012 13.4882 9.22694 13.528 9.35879 13.5827L9.36128 13.5865Z" fill="#424243"/>
<path d="M7.24047 14.1872C7.24047 14.1698 7.23301 14.1524 7.21186 14.1474C7.21062 14.1474 7.20938 14.1474 7.20813 14.1462H7.20067C7.17952 14.1462 7.16708 14.1599 7.16211 14.176C7.17455 14.181 7.18574 14.186 7.20067 14.1885H7.24047V14.1872Z" fill="#424243"/>
<path d="M8.3675 13.4235C8.36376 13.4086 8.36874 13.3924 8.37993 13.3812C8.25057 13.385 8.11996 13.3986 7.9906 13.421C8.00553 13.4322 8.02045 13.4434 8.03538 13.4546C8.14484 13.4372 8.25679 13.426 8.3675 13.4223V13.4235Z" fill="#424243"/>
<path d="M7.20072 14.1462H7.20818C6.97309 14.0803 7.18206 13.8091 7.27784 13.7394C7.39352 13.6549 7.53035 13.5952 7.66469 13.5491C7.75176 13.5193 7.84007 13.4956 7.92963 13.477C7.92217 13.4633 7.92341 13.4471 7.92963 13.4347C7.74305 13.472 7.56269 13.5317 7.39601 13.6188C7.28406 13.6772 7.1746 13.7506 7.10121 13.8576C7.04026 13.9459 7.05021 14.1275 7.16216 14.1773C7.16713 14.1611 7.17957 14.1474 7.20072 14.1474V14.1462Z" fill="#424243"/>
<path d="M8.15978 13.7668C8.17595 13.8178 8.2568 13.7967 8.24063 13.7445C8.20456 13.6313 8.12744 13.5317 8.03539 13.4559C8.01674 13.4584 7.99808 13.4621 7.97942 13.4646C8.02296 13.4982 8.15854 13.6089 8.20083 13.7544L7.97444 13.4658C7.95952 13.4683 7.94459 13.472 7.93091 13.4745C7.9334 13.4795 7.93837 13.4845 7.94459 13.4895C8.04037 13.5554 8.1262 13.6549 8.16227 13.7656L8.15978 13.7668Z" fill="#424243"/>
<path d="M7.98564 13.4185C7.96325 13.4024 7.94086 13.4148 7.93091 13.4335C7.95081 13.4297 7.97071 13.426 7.99186 13.4223C7.99061 13.421 7.98813 13.4198 7.98688 13.4185H7.98564Z" fill="#424243"/>
<path d="M7.92968 13.4758C7.94461 13.4733 7.95829 13.4695 7.97322 13.4671L7.96326 13.4546C7.96326 13.4546 7.96948 13.4596 7.97819 13.4658C7.99685 13.4621 8.01551 13.4596 8.03417 13.4571C8.01924 13.4447 8.00431 13.4335 7.98939 13.4235C7.96948 13.4273 7.94958 13.4297 7.92844 13.4347C7.92097 13.4472 7.91973 13.4633 7.92844 13.477L7.92968 13.4758Z" fill="#424243"/>
<path d="M7.97934 13.4658H7.97437L8.20075 13.7556C8.15846 13.6101 8.02288 13.4982 7.97934 13.4658Z" fill="#424243"/>
<path d="M7.96448 13.4546L7.97443 13.467H7.9794C7.9707 13.4596 7.96448 13.4546 7.96448 13.4546Z" fill="#424243"/>
<path d="M8.60252 13.7257C8.61869 13.7767 8.69955 13.7556 8.68338 13.7034C8.64855 13.5939 8.57516 13.4969 8.4856 13.4222C8.46321 13.4222 8.44082 13.4222 8.41843 13.4222C8.45948 13.4533 8.60004 13.5653 8.64233 13.7146L8.41345 13.4222C8.39853 13.4222 8.3836 13.4222 8.36743 13.4235C8.36992 13.4334 8.37489 13.4421 8.38485 13.4484C8.48062 13.5143 8.56645 13.6138 8.60252 13.7245V13.7257Z" fill="#424243"/>
<path d="M8.42715 13.3775C8.40849 13.3651 8.39108 13.37 8.37988 13.3825C8.3973 13.3825 8.41471 13.3825 8.43213 13.3825C8.43088 13.3825 8.42839 13.38 8.42715 13.3787V13.3775Z" fill="#424243"/>
<path d="M8.36746 13.4235C8.38238 13.4235 8.39731 13.4235 8.41348 13.4223L8.40602 13.4136C8.40602 13.4136 8.41099 13.4173 8.41845 13.4223C8.44084 13.4223 8.46323 13.4223 8.48562 13.4223C8.46821 13.4073 8.4508 13.3937 8.43214 13.3812C8.41472 13.3812 8.39731 13.3812 8.37989 13.3812C8.36994 13.3924 8.36497 13.4086 8.36746 13.4235Z" fill="#424243"/>
<path d="M8.41843 13.4222H8.41345L8.64233 13.7146C8.60003 13.5665 8.46072 13.4533 8.41843 13.4222Z" fill="#424243"/>
<path d="M8.40601 13.4136L8.41347 13.4223H8.41844C8.41098 13.4173 8.40601 13.4136 8.40601 13.4136Z" fill="#424243"/>
<path d="M9.02919 13.7333C9.04536 13.7843 9.12621 13.7631 9.11004 13.7109C9.08019 13.6176 9.02297 13.5342 8.95207 13.4646C8.92595 13.4596 8.89983 13.4559 8.8737 13.4509C8.93092 13.4982 9.03416 13.5964 9.07024 13.7208L8.85629 13.4472C8.83763 13.4447 8.81897 13.4422 8.79907 13.4397C8.80156 13.4459 8.80654 13.4509 8.81275 13.4559C8.90853 13.5218 8.99436 13.6213 9.03043 13.732L9.02919 13.7333Z" fill="#424243"/>
<path d="M8.85502 13.385C8.83263 13.3688 8.81024 13.3812 8.80029 13.3999C8.83139 13.4036 8.86249 13.4074 8.89234 13.4123C8.8799 13.4024 8.86746 13.3937 8.85502 13.385Z" fill="#424243"/>
<path d="M8.79906 13.441C8.81772 13.4434 8.83638 13.4459 8.85628 13.4484L8.83389 13.4198C8.83389 13.4198 8.85006 13.431 8.8737 13.4509C8.89982 13.4546 8.92594 13.4596 8.95206 13.4646C8.9334 13.4459 8.91226 13.4285 8.89235 13.4123C8.86126 13.4074 8.8314 13.4036 8.80031 13.3999C8.79409 13.4123 8.79284 13.4285 8.80031 13.4422L8.79906 13.441Z" fill="#424243"/>
<path d="M8.87374 13.4521C8.87374 13.4521 8.8613 13.4496 8.85632 13.4496L9.07027 13.7233C9.0342 13.5989 8.93096 13.5006 8.87374 13.4534V13.4521Z" fill="#424243"/>
<path d="M8.83398 13.421L8.85637 13.4496C8.85637 13.4496 8.86881 13.4521 8.87379 13.4521C8.85015 13.4322 8.83398 13.421 8.83398 13.421Z" fill="#424243"/>
</g>
<path d="M12.7087 14.1376H6.84631V14.5704H12.7087V14.1376Z" fill="#F0F1F1"/>
<path d="M12.7584 14.6202H6.79529V14.0865H12.7584V14.6202ZM6.89604 14.5194H12.6577V14.1873H6.89604V14.5194Z" fill="#424243"/>
<path d="M12.2808 12.5242C11.9574 12.8178 11.6352 13.1113 11.3118 13.4049C11.2322 13.477 11.3504 13.5952 11.43 13.523C11.7534 13.2295 12.0756 12.9359 12.399 12.6424C12.4786 12.5702 12.3604 12.4521 12.2808 12.5242Z" fill="#F0F1F1"/>
<path d="M12.4562 12.9521C12.2721 13.1474 12.088 13.3427 11.9039 13.538C11.8305 13.6163 11.9487 13.7345 12.022 13.6561L12.5743 13.0703C12.6477 12.9919 12.5295 12.8737 12.4562 12.9521Z" fill="#F0F1F1"/>
<g opacity="0.18">
<path d="M5.21056 10.4507C5.83001 10.4507 6.33253 9.94814 6.33253 9.32869C6.33253 9.94814 6.83506 10.4507 7.45451 10.4507C8.07396 10.4507 8.57649 9.94814 8.57649 9.32869C8.57649 9.94814 9.07902 10.4507 9.69847 10.4507C10.3179 10.4507 10.8204 9.94814 10.8204 9.32869C10.8204 9.94814 11.323 10.4507 11.9424 10.4507C12.5619 10.4507 13.0644 9.94814 13.0644 9.32869C13.0644 9.94814 13.5669 10.4507 14.1864 10.4507C14.8058 10.4507 15.3084 9.94814 15.3084 9.32869C15.3084 9.94814 15.8109 10.4507 16.4303 10.4507C17.0498 10.4507 17.5523 9.94814 17.5523 9.32869C17.5523 9.94814 18.0548 10.4507 18.6743 10.4507C19.2937 10.4507 19.7963 9.94814 19.7963 9.32869L19.7789 9.2951H4.16819C4.16819 9.2951 4.09604 10.4507 5.20931 10.4507H5.21056Z" fill="#272525"/>
</g>
<path d="M17.2189 15.0592C17.2189 15.1625 17.1343 15.247 17.0311 15.247C16.9278 15.247 16.8433 15.1625 16.8433 15.0592C16.8433 14.956 16.9278 14.8714 17.0311 14.8714C17.1343 14.8714 17.2189 14.956 17.2189 15.0592Z" fill="#F0F1F1"/>
<path d="M17.0311 15.2632C16.918 15.2632 16.8271 15.1712 16.8271 15.0592C16.8271 14.9473 16.9192 14.8552 17.0311 14.8552C17.1431 14.8552 17.2351 14.9473 17.2351 15.0592C17.2351 15.1712 17.1431 15.2632 17.0311 15.2632ZM17.0311 14.8876C16.9366 14.8876 16.8607 14.9647 16.8607 15.058C16.8607 15.1513 16.9379 15.2284 17.0311 15.2284C17.1244 15.2284 17.2016 15.1513 17.2016 15.058C17.2016 14.9647 17.1244 14.8876 17.0311 14.8876Z" fill="#424243"/>
<path d="M19.8336 17.634H4.16821V18.5408H19.8336V17.634Z" fill="#F0F1F1"/>
<path d="M4.33487 18.5408V17.6341C4.2789 17.69 4.22292 17.746 4.16695 17.802H19.193C19.3895 17.802 19.6122 17.8318 19.8062 17.802C19.8149 17.8007 19.8249 17.802 19.8336 17.802L19.6657 17.6341V18.5408C19.6657 18.756 20.0003 18.7573 20.0003 18.5408V17.6341C20.0003 17.5433 19.9231 17.4661 19.8323 17.4661H6.09869C5.46556 17.4661 4.82745 17.4413 4.19431 17.4661C4.18561 17.4661 4.17565 17.4661 4.16695 17.4661C4.07614 17.4661 3.99902 17.5433 3.99902 17.6341V18.5408C3.99902 18.756 4.33363 18.7573 4.33363 18.5408H4.33487Z" fill="#424243"/>
</svg>
